<svg width="1440" height="1024" viewBox="0 0 1440 1024" fill="none" xmlns="http://www.w3.org/2000/svg">
<g id="Drawing Illustration">
<rect width="1440" height="1024" fill="white"/>
<g id="Group" opacity="0.53">
<g id="Clipped">
<mask id="mask0" mask-type="alpha" maskUnits="userSpaceOnUse" x="303" y="263" width="768" height="560">
<path id="Path" fill-rule="evenodd" clip-rule="evenodd" d="M1070.47 295.463L975.01 800.485C972.328 814.672 958.477 824.343 943.542 822.455L362.175 748.968C349.116 747.318 338.986 737.24 337.768 724.687L303.739 373.957C302.324 359.372 313.314 346.365 328.513 344.637L1039.37 263.832C1058.21 261.69 1073.85 277.6 1070.47 295.463Z" fill="white"/>
</mask>
<g mask="url(#mask0)">
<g id="Group_2">
<path id="Path_2" d="M1070.47 295.463L975.01 800.485C972.328 814.672 958.477 824.343 943.542 822.455L362.175 748.968C349.116 747.318 338.986 737.24 337.768 724.687L303.739 373.957C302.324 359.372 313.314 346.365 328.513 344.637L1039.37 263.832C1058.21 261.69 1073.85 277.6 1070.47 295.463Z" fill="#E1E9F7"/>
<rect id="Rectangle" x="954.127" y="913.669" width="85.129" height="704.841" rx="12" transform="rotate(180 954.127 913.669)" stroke="white" stroke-width="2"/>
<rect id="Rectangle_2" x="779.908" y="898.511" width="85.129" height="704.841" rx="12" transform="rotate(180 779.908 898.511)" stroke="white" stroke-width="2"/>
<rect id="Rectangle_3" x="597.771" y="902.3" width="85.129" height="704.841" rx="12" transform="rotate(180 597.771 902.3)" stroke="white" stroke-width="2"/>
<rect id="Rectangle_4" x="425.532" y="906.09" width="85.129" height="704.841" rx="12" transform="rotate(180 425.532 906.09)" stroke="white" stroke-width="2"/>
</g>
</g>
</g>
</g>
<g id="Human 2">
<rect id="Rectangle_5" x="949.61" y="688.721" width="238.428" height="213.064" rx="12" transform="rotate(-180 949.61 688.721)" fill="#A2A2C5"/>
<rect id="Rectangle_6" x="910.619" y="688.721" width="199.438" height="213.064" rx="12" transform="rotate(-180 910.619 688.721)" fill="#DCDCF1"/>
<rect id="Rectangle_7" x="800.72" y="919.198" width="225.049" height="274.554" rx="12" transform="rotate(-180 800.72 919.198)" fill="#A2A2C5"/>
<rect id="Rectangle_8" x="979.403" y="919.679" width="172.221" height="273.249" rx="12" transform="rotate(-180 979.403 919.679)" fill="#8F8FB9"/>
<rect id="Rectangle_9" x="616.63" y="917.353" width="53.237" height="246.962" rx="12" transform="rotate(-180 616.63 917.353)" fill="#DCDCF1"/>
<rect id="Rectangle_10" x="802.768" y="847.879" width="205.27" height="112.322" rx="12" transform="rotate(-180 802.768 847.879)" fill="#DCDCF1"/>
<path id="Oval" d="M576.702 727.325C599.57 727.325 618.109 708.786 618.109 685.918C618.109 663.05 599.57 644.511 576.702 644.511C553.833 644.511 535.295 663.05 535.295 685.918C535.295 708.786 553.833 727.325 576.702 727.325Z" fill="#DCDCF1"/>
<path id="Path_3" d="M665.327 601.118L643.902 583.264L552.25 574.932L590.339 615.402L679.61 621.353L665.327 601.118Z" fill="#8F8FB9"/>
<g id="Human">
<path id="Path_4" d="M637.347 883.324L633.556 907.405H621.402L621.366 886.046L637.347 883.324Z" fill="#FCBB9D"/>
<path id="Path_5" d="M686.092 652.122C686.092 652.122 616.35 708.16 610.214 750.015C606.845 772.994 621.138 888.247 621.138 888.247H636.712C636.712 888.247 654.387 764.994 664.479 751.462C676.255 735.673 719.612 720.717 744.007 696.569C756.891 683.814 760.135 652.122 760.135 652.122H686.092Z" fill="#6D68DF"/>
<path id="Path_6" d="M635.768 916.891L633.7 906.12H621.476C617.221 906.12 613.218 908.773 610.681 913.273C609.838 914.773 610.648 916.89 612.062 916.89L635.768 916.891Z" fill="#5F2882"/>
<path id="Path_7" d="M704.416 883.324L700.625 907.405H688.471L688.435 886.046L704.416 883.324Z" fill="#FCBB9D"/>
<path id="Path_8" d="M753.072 652.122C753.072 652.122 683.419 708.16 677.283 750.015C673.914 772.994 688.207 888.247 688.207 888.247H703.781C703.781 888.247 721.456 764.994 731.548 751.462C743.568 735.345 785.795 727.792 811.771 705.511C829.538 690.271 827.204 652.122 827.204 652.122H753.072Z" fill="#856EEA"/>
<path id="Path_9" d="M702.837 916.891L700.77 906.12H688.544C684.29 906.12 680.286 908.773 677.75 913.273C676.907 914.773 677.717 916.89 679.13 916.89L702.837 916.891Z" fill="#5F2882"/>
<path id="Path_10" d="M805.411 652.122C805.411 652.122 807.581 688.893 783.496 701.231C773.413 706.396 723.241 733.675 718.475 750.356C704.353 799.781 698.389 888.247 698.389 888.247" stroke="white" stroke-linecap="round" stroke-linejoin="round" stroke-dasharray="7"/>
<path id="Path_11" d="M652.863 578.151C676.043 578.201 698.643 566.041 717.383 552.551C728.013 544.901 737.403 536.821 744.943 530.301C752.393 523.861 755.583 513.871 750.823 505.251C748.183 500.469 743.63 497.039 738.306 495.82C732.981 494.602 727.389 495.712 722.933 498.871C714.173 505.091 704.513 512.681 694.813 519.851C678.813 531.691 662.713 542.401 650.403 543.971C611.633 548.911 560.883 526.721 558.703 533.961C555.3 545.241 621.463 578.081 652.863 578.151Z" fill="#FCBB9D"/>
<path id="Path_12" d="M694.813 519.851L717.383 552.551C728.013 544.901 737.403 536.821 744.943 530.301C752.393 523.861 755.583 513.871 750.823 505.251C748.183 500.469 743.63 497.039 738.306 495.82C732.981 494.602 727.389 495.712 722.933 498.871C714.173 505.091 704.513 512.681 694.813 519.851Z" fill="#5CC2AD"/>
<path id="Path_13" d="M578.269 537.407C574.586 532.812 569.331 529.743 563.519 528.794C553.983 527.381 544.468 536.243 570.882 546.812C597.296 557.381 578.269 537.407 578.269 537.407Z" fill="#FCBB9D"/>
<path id="Path_14" d="M827.116 652.122H686.092C691.064 605.38 694.58 559.339 706.492 521.447C712.203 503.378 728.976 491.102 747.927 491.123H776.416C797.319 491.149 815.253 506.027 819.138 526.566C826.761 566.44 826.153 608.357 827.116 652.122Z" fill="#36A4B7"/>
<path id="Path_15" opacity="0.39" d="M820.137 531.671C820.137 531.671 801.19 590.407 786.98 608.407C772.77 626.407 688.138 634.091 688.138 634.091L690.454 610.723L753.822 584.723L790.769 540.2L820.137 531.671Z" fill="#1B1B1D"/>
<path id="Path_16" d="M650.083 603.261C651.303 614.981 725.773 618.571 754.763 606.511C775.363 597.941 790.813 579.571 802.513 560.961C809.047 550.271 815.041 539.261 820.473 527.971C824.853 519.161 823.943 508.711 816.223 502.601C811.942 499.209 806.418 497.802 801.036 498.734C795.654 499.665 790.924 502.847 788.033 507.481C782.883 515.741 776.463 525.871 769.913 535.841C757.323 555.011 744.203 573.571 738.543 577.091C705.353 597.721 649.3 595.741 650.083 603.261Z" fill="#FCBB9D"/>
<path id="Path_17" d="M669.463 598.881C664.291 596.064 658.259 595.263 652.531 596.631C643.189 599.009 637.831 610.858 666.279 610.409C694.727 609.96 669.463 598.881 669.463 598.881Z" fill="#FCBB9D"/>
<path id="Path_18" d="M748.883 459.851V500.061C748.883 506.095 753.774 510.986 759.808 510.986C765.842 510.986 770.733 506.095 770.733 500.061V459.851L748.883 459.851Z" fill="#FCBB9D"/>
<path id="Path_19" d="M769.913 535.841L802.513 560.961C809.047 550.271 815.041 539.261 820.473 527.971C824.853 519.161 823.943 508.711 816.223 502.601C811.942 499.209 806.418 497.802 801.036 498.734C795.654 499.665 790.925 502.847 788.033 507.481C782.883 515.741 776.463 525.871 769.913 535.841Z" fill="#5CC2AD"/>
<path id="Path_20" d="M748.883 462.091V486.991C748.883 486.991 763.973 490.391 770.733 475.711V459.851H758.413L748.883 462.091Z" fill="#B98A80"/>
<path id="Path_21" d="M724.34 424.174L731.63 438.564L731.97 439.234V460.364C731.973 469.646 739.496 477.171 748.779 477.174H753.93C763.213 477.171 770.737 469.647 770.74 460.364V424.174L724.34 424.174Z" fill="#FCBB9D"/>
<path id="Oval_2" d="M771.218 466.242C774.748 466.242 777.61 463.38 777.61 459.85C777.61 456.32 774.748 453.458 771.218 453.458C767.688 453.458 764.826 456.32 764.826 459.85C764.826 463.38 767.688 466.242 771.218 466.242Z" fill="#FCBB9D"/>
<path id="Path_22" d="M724.34 424.174H770.74V438.564H770.73V451.954C770.73 453.008 770.168 453.982 769.255 454.509C768.342 455.036 767.218 455.036 766.305 454.509C765.392 453.982 764.83 453.008 764.83 451.954V443.927H763.4C762.007 443.909 760.79 442.984 760.4 441.647C759.883 439.705 758.053 438.409 756.05 438.565H731.63L724.34 424.174Z" fill="#4F216C"/>
<path id="Path_23" d="M737.667 459.514L750.456 459.671C750.456 459.671 752.825 469.987 743.562 469.514C736.143 469.134 737.667 459.514 737.667 459.514Z" fill="white"/>
<path id="Path_24" opacity="0.39" d="M711.927 690.723C711.927 690.723 674.505 719.99 664.479 751.462L680.348 738.512C680.348 738.512 693.19 708.407 711.927 690.723Z" fill="#1B1B1D"/>
<path id="Path_25" opacity="0.39" d="M712.559 506.934C712.559 506.934 700.559 524.618 693.612 539.144C686.665 553.67 682.875 572.2 682.875 572.2L696.559 565.673C696.559 565.673 703.085 519.565 712.559 506.934Z" fill="#1B1B1D"/>
</g>
<path id="Path_26" d="M559.792 510.574L566.722 558.813L568.854 559.879L570.453 558.28L562.724 509.774L559.792 510.574Z" fill="#8F8FB9"/>
<path id="Oval_3" opacity="0.38" d="M573.376 704.242C585.403 704.242 595.152 694.493 595.152 682.466C595.152 670.439 585.403 660.69 573.376 660.69C561.35 660.69 551.6 670.439 551.6 682.466C551.6 694.493 561.35 704.242 573.376 704.242Z" fill="#A2A2C5"/>
<rect id="Rectangle_11" x="783.089" y="671.653" width="53.237" height="246.962" rx="12" fill="#DCDCF1"/>
<path id="Oval_4" d="M823.017 728.588C845.885 728.588 864.424 710.049 864.424 687.181C864.424 664.313 845.885 645.774 823.017 645.774C800.148 645.774 781.61 664.313 781.61 687.181C781.61 710.049 800.148 728.588 823.017 728.588Z" fill="#DCDCF1"/>
<path id="Oval_5" opacity="0.38" d="M819.228 707.745C831.255 707.745 841.004 697.996 841.004 685.969C841.004 673.942 831.255 664.193 819.228 664.193C807.202 664.193 797.452 673.942 797.452 685.969C797.452 697.996 807.202 707.745 819.228 707.745Z" fill="#A2A2C5"/>
<path id="Oval_6" opacity="0.39" d="M588.032 597.774C589.951 597.774 591.506 596.219 591.506 594.3C591.506 592.381 589.951 590.826 588.032 590.826C586.113 590.826 584.558 592.381 584.558 594.3C584.558 596.219 586.113 597.774 588.032 597.774Z" fill="#1B1B1D"/>
</g>
<g id="Human 1">
<path id="Path_27" d="M473.4 549.458L485.716 522.301L529.295 537.143L502.769 604.406L456.979 587.037L473.4 549.458Z" fill="#8F8FB9"/>
<path id="Path_28" d="M401.908 886.583L400.851 910.664H413.005L417.888 889.305L401.908 886.583Z" fill="#FCBB9D"/>
<path id="Path_29" d="M453.843 741.812C453.323 747.512 452.273 754.422 450.843 762.092C442.613 806.312 421.863 876.082 417.893 889.302C417.453 890.732 417.223 891.502 417.223 891.502H401.653C401.653 891.502 401.733 889.952 401.883 887.152C401.893 886.972 401.903 886.782 401.913 886.582C403.143 862.902 408.213 760.792 405.733 737.132C405.223 732.242 403.983 725.222 402.273 716.902C396.883 690.602 386.753 651.282 379.783 625.042L379.743 624.902C379.443 623.752 379.153 622.642 378.853 621.552C375.033 607.172 372.363 597.502 372.363 597.502H446.413C446.413 597.502 452.713 654.592 454.293 701.022C454.823 716.712 454.813 731.172 453.843 741.812Z" fill="#6D68DF"/>
<path id="Path_30" d="M397.745 920.15L399.812 909.379H412.038C416.293 909.379 420.296 912.032 422.838 916.533C423.681 918.033 422.871 920.15 421.457 920.15H397.745Z" fill="#5F2882"/>
<path id="Path_31" d="M479.64 523.527C456.46 523.577 433.86 511.417 415.12 497.927C404.49 490.277 395.1 482.197 387.56 475.677C380.11 469.237 376.92 459.247 381.68 450.627C384.32 445.845 388.873 442.415 394.198 441.196C399.522 439.978 405.114 441.088 409.57 444.247C418.33 450.467 427.99 458.057 437.69 465.227C453.69 477.067 469.79 487.777 482.1 489.347C520.87 494.287 571.62 472.097 573.8 479.337C577.2 490.617 511.04 523.457 479.64 523.527Z" fill="#FCBB9D"/>
<path id="Path_32" d="M437.69 465.227L415.12 497.927C404.49 490.277 395.1 482.197 387.56 475.677C380.11 469.237 376.92 459.247 381.68 450.627C384.32 445.845 388.873 442.415 394.198 441.196C399.522 439.978 405.114 441.088 409.57 444.247C418.33 450.467 427.99 458.057 437.69 465.227Z" fill="#CD5F5F"/>
<path id="Path_33" d="M359.994 886.328L356.728 910.831H346.005L342.409 886.328H359.994Z" fill="#FCBB9D"/>
<path id="Path_34" d="M554.233 482.783C557.917 478.188 563.172 475.12 568.984 474.17C578.52 472.757 588.035 481.62 561.621 492.188C535.207 502.756 554.233 482.783 554.233 482.783Z" fill="#FCBB9D"/>
<path id="Path_35" d="M379.433 597.5C379.433 597.5 379.223 606.49 378.893 620.26C378.873 620.57 378.873 620.88 378.863 621.19C378.863 621.31 378.853 621.43 378.853 621.55C378.203 647.92 377.103 690.65 376.093 722.05C375.823 730.55 375.563 738.21 375.313 744.5C374.933 754.03 373.893 766.93 372.513 781.15C367.893 828.89 359.453 891.5 359.453 891.5H343.033C343.033 891.5 342.903 890.27 342.663 888.02C342.613 887.51 342.553 886.95 342.483 886.33C339.913 862.09 329.123 759.78 327.093 734.42C324.683 704.42 305.383 597.5 305.383 597.5H379.433Z" fill="#6D68DF"/>
<path id="Path_36" d="M446.413 597.5H305.383C306.353 553.73 305.743 511.81 313.363 471.94C317.249 451.403 335.182 436.526 356.083 436.5H384.573C385.593 436.5 386.613 436.54 387.623 436.61C387.79 436.617 387.957 436.633 388.123 436.66C405.715 438.063 420.7 449.991 426.013 466.82C437.923 504.712 441.443 550.752 446.413 597.5Z" fill="#EA7E7B"/>
<path id="Path_37" d="M388.133 437.2V448.25C388.114 454.869 382.752 460.231 376.133 460.25H369.193C362.573 460.231 357.212 454.869 357.193 448.25V437.2C357.193 436.96 357.203 436.73 357.213 436.5H384.573C385.593 436.5 386.613 436.54 387.623 436.61C387.79 436.617 387.957 436.633 388.123 436.66C388.133 436.842 388.133 437.022 388.133 437.2Z" fill="#CD5F5F"/>
<path id="Path_38" d="M487.157 556.848C485.937 568.568 411.467 572.158 382.477 560.098C361.877 551.528 346.427 533.158 334.727 514.548C328.193 503.858 322.199 492.848 316.767 481.558C312.387 472.748 313.296 462.298 321.017 456.188C325.298 452.796 330.822 451.389 336.204 452.321C341.586 453.252 346.315 456.434 349.207 461.068C354.357 469.328 360.777 479.458 367.327 489.428C379.917 508.598 393.037 527.158 398.697 530.678C431.887 551.308 487.937 549.328 487.157 556.848Z" fill="#FCBB9D"/>
<path id="Path_39" d="M467.776 552.468C472.948 549.651 478.98 548.85 484.708 550.218C494.05 552.596 499.408 564.445 470.96 563.996C442.512 563.547 467.776 552.468 467.776 552.468Z" fill="#FCBB9D"/>
<path id="Path_40" d="M383.62 405.227V445.437C383.62 451.471 378.729 456.362 372.695 456.362C366.661 456.362 361.77 451.471 361.77 445.437V405.227H383.62Z" fill="#FCBB9D"/>
<path id="Path_41" d="M342.409 920.15L344.476 909.379H356.7C360.955 909.379 364.958 912.032 367.495 916.533C368.338 918.033 367.528 920.15 366.114 920.15H342.409Z" fill="#5F2882"/>
<path id="Path_42" d="M367.327 489.428L334.727 514.548C328.193 503.858 322.199 492.848 316.767 481.558C312.387 472.748 313.296 462.298 321.017 456.188C325.298 452.796 330.822 451.389 336.204 452.321C341.586 453.252 346.315 456.434 349.207 461.068C354.357 469.328 360.777 479.458 367.327 489.428Z" fill="#CD5F5F"/>
<path id="Path_43" d="M328.366 597.5C328.366 597.5 348.966 738.652 348.966 891.508" stroke="white" stroke-linecap="round" stroke-linejoin="round" stroke-dasharray="7"/>
<path id="Path_44" d="M383.62 407.467V432.367C383.62 432.367 368.53 435.767 361.77 421.087V405.227H374.09L383.62 407.467Z" fill="#B98A80"/>
<path id="Path_45" d="M383.726 422.547H378.571C369.29 422.547 361.766 415.023 361.766 405.742V369.554H408.16L400.531 384.607V405.742C400.531 410.199 398.761 414.473 395.609 417.625C392.457 420.776 388.183 422.547 383.726 422.547Z" fill="#FCBB9D"/>
<path id="Oval_7" d="M361.285 411.618C364.815 411.618 367.677 408.756 367.677 405.226C367.677 401.696 364.815 398.834 361.285 398.834C357.755 398.834 354.893 401.696 354.893 405.226C354.893 408.756 357.755 411.618 361.285 411.618Z" fill="#FCBB9D"/>
<path id="Path_46" d="M408.163 369.554H361.763V383.944H361.774V397.334C361.774 398.388 362.336 399.362 363.249 399.889C364.162 400.416 365.286 400.416 366.199 399.889C367.112 399.362 367.674 398.388 367.674 397.334V389.307H369.107C370.499 389.288 371.716 388.363 372.107 387.027C372.623 385.085 374.453 383.789 376.456 383.946H400.876L408.163 369.554Z" fill="#B14949"/>
<path id="Path_47" opacity="0.32" d="M376.093 722.052C375.823 730.552 375.563 738.212 375.313 744.502C374.933 754.032 373.893 766.932 372.513 781.152C371.894 781.323 371.255 781.41 370.613 781.412C362.503 781.412 355.933 767.622 355.933 750.622C355.933 733.622 362.503 719.832 370.613 719.832C372.647 719.889 374.593 720.677 376.093 722.052Z" fill="white"/>
<path id="Path_48" opacity="0.32" d="M453.843 741.812C453.323 747.512 452.273 754.422 450.843 762.092C443.913 759.632 438.633 746.972 438.633 731.742C438.633 714.732 445.203 700.952 453.313 700.952C453.641 700.95 453.968 700.973 454.293 701.022C454.823 716.712 454.813 731.172 453.843 741.812Z" fill="white"/>
<path id="Path_49" d="M367.327 489.428L343.614 528.355L333.088 513.618L367.327 489.428Z" fill="#E7A58A"/>
<path id="Path_50" d="M437.69 465.227L452.14 518.461L436.14 511.724L428.561 477.197L437.69 465.227Z" fill="#E7A58A"/>
<path id="Path_51" d="M381.351 405.145L391.93 404.987C391.93 404.987 392.561 413.04 386.719 413.671C380.877 414.302 381.351 405.145 381.351 405.145Z" fill="white"/>
<path id="Path_52" d="M327.509 503.513L333.088 513.618L367.327 489.428L360.351 479.513L327.509 503.513Z" fill="#B14949"/>
<path id="Path_53" d="M437.69 465.227L428.561 477.197L426.013 466.822L431.561 460.566L437.69 465.227Z" fill="#B14949"/>
<path id="Path_54" opacity="0.39" d="M378.667 620.355L399.509 611.829L402.351 719.829L378.667 620.355Z" fill="#1B1B1D"/>
<path id="Path_55" opacity="0.43" d="M400.351 531.934L394.456 536.145L394.877 527.303L400.351 531.934Z" fill="#C86336"/>
<path id="Path_56" opacity="0.43" d="M482.1 489.347L477.403 499.092L474.035 487.303L482.1 489.347Z" fill="#C86336"/>
<path id="Oval_8" opacity="0.39" d="M502.839 547.97C504.496 547.97 505.839 546.627 505.839 544.97C505.839 543.313 504.496 541.97 502.839 541.97C501.182 541.97 499.839 543.313 499.839 544.97C499.839 546.627 501.182 547.97 502.839 547.97Z" fill="#1B1B1D"/>
<path id="Path_57" d="M541.932 479.539L590.158 486.565L591.784 484.822L590.704 482.835L541.996 476.501L541.932 479.539Z" fill="#8F8FB9"/>
</g>
<g id="Table">
<g id="Group_3">
<path id="Path_58" d="M1103.5 640.3L1087.4 721.774H1022.03L1040.03 645.985L1103.5 640.3Z" fill="#DCDCF1"/>
<path id="Path_59" d="M1046.87 652.932L1032.35 712.3L1080.35 711.984L1092.98 649.458L1046.87 652.932Z" fill="#AFAFD5"/>
<path id="Path_60" d="M1095.82 677.563L1117.92 722.09L1103.71 722.405L1093.61 691.142L1095.82 677.563Z" fill="#AFAFD5"/>
</g>
<g id="Group_4">
<g id="Group_5">
<path id="Path_61" d="M978.031 871.879L961.61 916.089H974.241L1002.66 873.142L978.031 871.879Z" fill="#FCAA71"/>
<path id="Path_62" d="M1001.56 875.195L970.768 891.142L976.926 875.195H1001.56Z" fill="#D78A56"/>
</g>
<g id="Group_6">
<path id="Path_63" d="M1019.71 871.247L1003.29 915.458H1015.93L1044.35 872.51L1019.71 871.247Z" fill="#FCAA71"/>
<path id="Path_64" d="M1043.24 874.563L1012.45 890.51L1018.61 874.563H1043.24Z" fill="#D78A56"/>
</g>
<g id="Group_7">
<path id="Path_65" d="M1108.81 871.879L1123.29 916.089H1112.15L1087.08 873.142L1108.81 871.879Z" fill="#FCAA71"/>
<path id="Path_66" d="M1088.06 875.195L1115.22 891.142L1109.78 875.195H1088.06Z" fill="#D78A56"/>
</g>
<g id="Group_8">
<path id="Path_67" d="M1162.49 871.879L1176.98 916.089H1165.84L1140.77 873.142L1162.49 871.879Z" fill="#FCAA71"/>
<path id="Path_68" d="M1141.74 875.195L1168.9 891.142L1163.47 875.195H1141.74Z" fill="#D78A56"/>
</g>
<g id="Group_9">
<g id="Group_10">
<rect id="Rectangle_12" x="951.505" y="720.932" width="223.06" height="82.105" fill="#DCDCF1"/>
<rect id="Rectangle_13" x="1124.81" y="720.932" width="49.755" height="82.105" fill="#8F8FB9"/>
<rect id="Rectangle_14" x="962.241" y="730.405" width="149.684" height="61.263" fill="#8F8FB9"/>
</g>
<g id="Group_11">
<rect id="Rectangle_15" x="951.505" y="793.037" width="223.06" height="82.105" fill="#DCDCF1"/>
<rect id="Rectangle_16" x="1124.81" y="793.037" width="49.755" height="82.105" fill="#8F8FB9"/>
<rect id="Rectangle_17" x="962.241" y="802.511" width="149.684" height="61.263" fill="#8F8FB9"/>
</g>
</g>
</g>
</g>
<g id="Table_2">
<path id="Path_69" d="M338.805 924.365L334.779 924.396C332.94 924.409 331.479 921.755 331.498 918.443L333.198 655.358L347.792 655.249L342.238 918.386C342.168 921.689 340.64 924.352 338.805 924.365Z" fill="#FCAA71"/>
<path id="Path_70" d="M428.809 923.248L424.783 923.279C422.943 923.292 421.483 920.638 421.501 917.326L423.201 654.241L437.796 654.132L432.242 917.269C432.172 920.572 430.643 923.235 428.809 923.248Z" fill="#FCAA71"/>
<path id="Path_71" d="M817.2 920.39L813.174 920.421C811.335 920.435 809.874 917.769 809.893 914.442L811.604 650.173L826.204 650.063L820.639 914.383C820.566 917.7 819.037 920.376 817.2 920.39Z" fill="#FCAA71"/>
<path id="Path_72" d="M907.206 919.247L903.18 919.277C901.34 919.291 899.88 916.642 899.899 913.336L901.599 650.728L916.193 650.619L910.644 913.278C910.569 916.575 909.04 919.233 907.206 919.247Z" fill="#FCAA71"/>
<rect id="Rectangle_18" x="301.031" y="646.953" width="650.443" height="19.957" fill="#DCDCF1"/>
<rect id="Rectangle_19" x="777.03" y="646.532" width="174.634" height="19.957" fill="#AFAFD5"/>
<path id="Path_73" d="M347.081 666.854L333.608 683.694L333.187 666.854H347.081Z" fill="#DC905E"/>
<path id="Path_74" d="M436.344 666.854L422.871 681.398V666.854H436.344Z" fill="#DC905E"/>
<path id="Path_75" d="M825.712 666.854L812.133 680.058L811.817 666.472L825.712 666.854Z" fill="#DC905E"/>
<path id="Path_76" d="M915.396 667.237L901.186 681.398V667.046L915.396 667.237Z" fill="#DC905E"/>
</g>
<g id="Plant">
<g id="Group_12">
<path id="Path_77" d="M511.835 824.785C511.835 824.785 516.213 781.002 509.049 754.334C501.885 727.666 467.654 705.774 467.654 705.774C467.654 705.774 492.73 728.86 499.894 759.11C507.058 789.36 505.069 826.377 505.069 826.377L511.835 824.785Z" fill="#5CC2AD"/>
<path id="Path_78" d="M511.835 826.775C511.835 826.775 509.447 751.547 530.941 730.85C530.941 730.85 519.796 765.478 518.602 792.15C517.408 818.822 517.01 827.973 517.01 827.973L511.835 826.775Z" fill="#1A7A83"/>
<path id="Path_79" d="M521.388 827.571C521.388 827.571 515.417 785.38 537.309 761.896C537.309 761.896 519.796 779.011 515.417 802.096C511.038 825.181 512.233 829.56 512.233 829.56L521.388 827.571Z" fill="#5CC2AD"/>
<path id="Path_80" d="M508.253 828.765C508.253 828.765 510.641 803.689 499.098 780.206C487.555 756.723 465.664 754.732 465.664 754.732C465.664 754.732 491.536 768.663 495.516 789.36C497.915 801.828 499.247 814.478 499.496 827.173L508.253 828.765Z" fill="#1A7A83"/>
<path id="Path_81" d="M525.368 829.163C525.368 829.163 524.174 812.844 540.095 799.311C540.095 799.311 528.95 801.301 524.572 808.068C520.194 814.835 517.01 827.968 517.01 827.968L525.368 829.163Z" fill="#1A7A83"/>
<path id="Path_82" d="M505.069 826.377C505.069 826.377 499.894 798.913 485.569 797.719C485.569 797.719 492.734 806.874 494.326 814.834C495.337 820.484 495.87 826.21 495.918 831.95L505.069 826.377Z" fill="#5CC2AD"/>
</g>
<g id="Group_13">
<path id="Path_83" d="M534.127 831.554V895.635C534.089 908.368 523.776 918.681 511.042 918.719C508.552 918.72 506.079 918.314 503.719 917.519C494.32 914.35 487.981 905.551 487.951 895.632V831.554C487.963 827.383 491.342 824.004 495.513 823.992H526.564C530.736 824.004 534.115 827.382 534.127 831.554Z" fill="#AFAFD5"/>
<path id="Path_84" d="M521.585 830.955V895.036C521.552 905.763 514.161 915.065 503.719 917.522C494.32 914.353 487.981 905.554 487.951 895.635V831.554C487.963 827.383 491.342 824.004 495.513 823.992H516.96C519.757 825.177 521.577 827.917 521.585 830.955Z" fill="#DCDCF1"/>
</g>
</g>
<path id="Path_85" d="M667.669 423.932H659.812C654.722 399.329 639.306 378.098 617.487 365.643H639.6C642.439 373.673 650.65 378.489 659.044 377.049C667.438 375.609 673.574 368.331 673.574 359.814C673.574 351.297 667.438 344.019 659.044 342.579C650.65 341.139 642.439 345.955 639.6 353.985H591.505V348.156C591.506 346.61 590.892 345.127 589.798 344.033C588.705 342.94 587.222 342.326 585.676 342.327H562.361C560.815 342.326 559.331 342.94 558.238 344.033C557.145 345.127 556.531 346.61 556.532 348.156V353.985H508.439C505.6 345.955 497.389 341.139 488.995 342.579C480.601 344.019 474.465 351.297 474.465 359.814C474.465 368.331 480.601 375.609 488.995 377.049C497.389 378.489 505.6 373.673 508.439 365.643H530.939C509.451 377.943 493.339 399.005 488.226 423.932H480.368C478.822 423.931 477.338 424.545 476.245 425.638C475.152 426.732 474.538 428.215 474.539 429.761V453.076C474.538 454.622 475.152 456.105 476.245 457.199C477.338 458.292 478.822 458.906 480.368 458.905H503.684C505.23 458.906 506.713 458.292 507.806 457.199C508.9 456.105 509.514 454.622 509.513 453.076V429.761C509.514 428.215 508.9 426.732 507.806 425.638C506.713 424.545 505.23 423.931 503.684 423.932H500.145C506.734 396.289 528.889 374.522 556.532 367.932V371.471C556.531 373.017 557.145 374.5 558.238 375.594C559.331 376.687 560.815 377.301 562.361 377.3H585.676C587.222 377.301 588.705 376.687 589.798 375.594C590.892 374.5 591.506 373.017 591.505 371.471V367.932C619.148 374.521 641.305 396.288 647.892 423.932H644.353C642.807 423.931 641.323 424.545 640.23 425.638C639.137 426.732 638.523 428.215 638.524 429.761V453.076C638.523 454.622 639.137 456.105 640.23 457.199C641.323 458.292 642.807 458.906 644.353 458.905H667.669C669.215 458.906 670.698 458.292 671.791 457.199C672.885 456.105 673.499 454.622 673.498 453.076V429.76C673.499 428.214 672.885 426.731 671.791 425.638C670.698 424.545 669.215 423.931 667.669 423.932Z" fill="#DCDCF1"/>
<path id="Path_86" d="M1015.28 424.216L1007.42 424.298C1002.07 399.749 986.436 378.681 964.487 366.454L986.598 366.223C989.521 374.222 997.781 378.952 1006.16 377.424C1014.54 375.896 1020.6 368.555 1020.51 360.039C1020.42 351.523 1014.21 344.31 1005.8 342.958C997.39 341.606 989.231 346.508 986.476 354.566L938.386 355.066L938.325 349.238C938.31 347.692 937.681 346.215 936.576 345.133C935.471 344.051 933.981 343.453 932.435 343.47L909.121 343.713C907.575 343.728 906.098 344.358 905.016 345.462C903.934 346.567 903.336 348.057 903.353 349.603L903.414 355.432L855.324 355.932C852.402 347.932 844.142 343.201 835.763 344.728C827.384 346.255 821.324 353.597 821.413 362.113C821.501 370.63 827.712 377.844 836.121 379.197C844.529 380.55 852.69 375.648 855.445 367.589L877.945 367.354C856.586 379.875 840.691 401.106 835.845 426.085L827.989 426.167C826.443 426.182 824.966 426.811 823.884 427.916C822.803 429.02 822.204 430.51 822.221 432.056L822.464 455.37C822.48 456.916 823.109 458.393 824.214 459.475C825.318 460.557 826.808 461.155 828.354 461.138L851.668 460.895C853.214 460.879 854.691 460.25 855.772 459.145C856.854 458.04 857.452 456.551 857.435 455.005L857.192 431.691C857.177 430.145 856.547 428.669 855.443 427.587C854.338 426.505 852.849 425.906 851.303 425.923L847.764 425.96C854.064 398.25 875.991 376.254 903.564 369.377L903.601 372.915C903.616 374.461 904.245 375.938 905.35 377.02C906.455 378.102 907.944 378.7 909.49 378.683L932.804 378.439C934.35 378.424 935.827 377.795 936.909 376.69C937.991 375.586 938.59 374.096 938.572 372.55L938.535 369.012C966.245 375.312 988.627 396.846 995.503 424.418L991.965 424.455C990.419 424.47 988.942 425.1 987.86 426.204C986.778 427.309 986.18 428.799 986.197 430.345L986.44 453.659C986.456 455.205 987.085 456.682 988.19 457.763C989.295 458.845 990.784 459.443 992.33 459.426L1015.64 459.183C1017.19 459.168 1018.67 458.538 1019.75 457.434C1020.83 456.329 1021.43 454.84 1021.41 453.294L1021.17 429.98C1021.15 428.434 1020.52 426.958 1019.42 425.876C1018.31 424.795 1016.82 424.198 1015.28 424.216Z" fill="#DCDCF1"/>
<rect id="Rectangle_20" x="257.729" y="918.616" width="924.63" height="5.053" fill="#4F216C"/>
</g>
</svg>
