<svg xmlns="http://www.w3.org/2000/svg" viewBox="0 0 2340 1560"><defs><style>.cls-1,.cls-6{fill:#fff;}.cls-1,.cls-3,.cls-4,.cls-5,.cls-6,.cls-7{stroke:#1a1a1a;}.cls-1,.cls-3,.cls-4,.cls-5,.cls-6{stroke-linecap:round;stroke-linejoin:round;}.cls-1,.cls-3{stroke-width:3px;}.cls-2,.cls-5{fill:#fbb040;}.cls-3{fill:none;}.cls-4{fill:#3f3325;}.cls-5,.cls-6,.cls-7{stroke-width:2px;}.cls-7{fill:#e6dcd1;stroke-miterlimit:10;}</style></defs><title>Vectors</title><g id="_9" data-name="9"><circle class="cls-1" cx="587.04256" cy="435.76416" r="88.5745"/><polyline class="cls-1" points="582.951 375.388 582.951 442.508 624.806 484.363"/><rect class="cls-2" x="1547.99126" y="297.42482" width="253.20916" height="608.53048" transform="translate(1072.90578 2276.28591) rotate(-90)"/><rect class="cls-1" x="1393.94888" y="496.68618" width="561.29393" height="210.00793"/><path class="cls-3" d="M1415.51412,628.76637l38.96352-23.44158,25.59937,5.8604,20.85693-19.53465,38.18326,12.20916,46.4563-22.95322,33.94068,8.79059,25.87976-38.09256,16.97034,6.83712,34.57706-9.76732,21.0008,7.32549,26.09189,13.67426,24.81912.48836,21.63718-12.69752,22.91,13.18589,28.00106,6.83713,28.001-15.62772V543.79065l19.09163-15.62772,18.45525-3.41857s9.54581-11.72079,12.72775-11.72079h14.00053"/><polyline class="cls-3" points="1420.469 661.82 1449.387 680.917 1474.653 659.861 1507.934 659.861 1547.39 642.723 1585.574 649.578 1611.453 631.46 1674.596 635.378 1707.76 620.198 1753.58 610.894 1772.035 596.204 1824.855 614.454 1843.311 590.908 1880.221 572.21 1933.678 583.962"/><rect class="cls-4" x="1811.70325" y="647.9708" width="82.7304" height="8.90943"/><rect class="cls-4" x="1811.70325" y="672.00763" width="82.7304" height="8.90943"/><polygon class="cls-5" points="1521.111 1078.574 1504.303 1078.574 1522.88 992.423 1539.688 992.423 1521.111 1078.574"/><polygon class="cls-5" points="1548.092 1078.574 1531.284 1078.574 1549.862 992.423 1566.67 992.423 1548.092 1078.574"/><polygon class="cls-6" points="1575.074 1078.574 1558.266 1078.574 1576.843 992.423 1593.651 992.423 1575.074 1078.574"/><polygon class="cls-6" points="1602.055 1078.574 1585.247 1078.574 1603.825 992.423 1620.633 992.423 1602.055 1078.574"/><polygon class="cls-5" points="1629.037 1078.574 1612.229 1078.574 1630.806 992.423 1647.614 992.423 1629.037 1078.574"/><polygon class="cls-6" points="1693.173 1078.574 1709.981 1078.574 1691.404 992.423 1674.596 992.423 1693.173 1078.574"/><polygon class="cls-7" points="1666.192 1078.574 1683 1078.574 1664.422 992.423 1647.614 992.423 1666.192 1078.574"/><path class="cls-6" d="M1946.9,1360.04032c28.47314-236.461-369.23973-325.60482-514.99178-29.15026-54.43229-43.8596-175.36553-48.24974-189.03494,29.7006h197.29321v-.55034Z"/><path class="cls-6" d="M470.60189,1360.59069s33.69566-63.6367,81.053-92.4543c63.91115-38.89095,140.0393-36.83,194.36519-15.629,71.24644,27.8044,133.07235,108.04831,133.1153,108.0833Z"/><rect class="cls-4" x="1313.26944" y="1247.56264" width="26.53918" height="113.02805"/><rect class="cls-4" x="1716.90583" y="1247.56264" width="26.53918" height="113.02805"/><rect class="cls-6" x="1429.18585" y="882.95444" width="188.74592" height="579.98487" rx="58.54501" transform="translate(2696.50569 -350.61193) rotate(90)"/><rect class="cls-6" x="1242.87336" y="1087.8809" width="561.37081" height="170.13154" rx="49.23788"/><path class="cls-4" d="M1185.8808,1360.59069h-12.27437s-15.59176,0-36.15962-6.96653-34.16919-25.719-34.16919-25.719l-3.64914,32.38471h-12.27437l-1.68987-64.63643s17.91508-14.00612,65.265,15.55853c21.806,12.31419,38.26893,40.15375,38.26893,40.15375s7.96175,7.83429-3.3174,9.225"/><path class="cls-6" d="M1103.98479,1175.119s15.15607,120.41581,46.94448,135.66828c0,0-13.64833.17912-24.87219,7.975-10.38082-19.64995-40.39284-23.53353-40.39284-23.53353s0-55.97341-22.37285-119.22512C1069.43841,1176.00359,1103.98479,1175.119,1103.98479,1175.119Z"/><polygon class="cls-6" points="694.954 1024.164 610.949 1359.261 621.956 1359.261 730.511 1036.82 694.954 1024.164"/><polygon class="cls-6" points="877.542 1033.392 959.234 1359.261 948.227 1359.261 844.374 1050.786 877.542 1033.392"/><path class="cls-2" d="M931.72476,999.36408c-36.68664-.00182-67.9235-3.96258-94.58269-10.55051a262.98513,262.98513,0,0,1-60.32827-22.615,216.47229,216.47229,0,0,1-39.30381-26.584,210.60115,210.60115,0,0,1-26.36948-26.92118,234.51343,234.51343,0,0,1-31.93263-51.87345,279.55734,279.55734,0,0,1-14.20157-38.93957,306.25311,306.25311,0,0,1-9.625-48.59186,217.82078,217.82078,0,0,1-1.56285-23.34239c0-.21836.00136-.34015.00159-.36628v-.00319h-.00523a51.1864,51.1864,0,0,0-102.352-2.05161l-.00022-.00023c-.00818.3672-.02273,1.18453-.0225,2.42131.01159,7.77951.52262,32.29051,6.92991,65.61694a393.00025,393.00025,0,0,0,27.11273,86.46348,338.39151,338.39151,0,0,0,43.20709,71.5057,313.09134,313.09134,0,0,0,49.79388,50.10019,319.93372,319.93372,0,0,0,48.43281,31.98171c26.66669,14.36063,57.01874,25.96138,91.1,33.8929,34.089,7.94015,71.89108,12.2363,113.70823,12.23516a51.18905,51.18905,0,1,0,0-102.3781ZM653.82,749.57822Z"/><path class="cls-4" d="M944.09443,522.71216s38.81938-33.18856-7.24548-67.46833c-40.6552-30.2541-111.46454-5.30784-112.128,61.0401-45.1166,15.92351-46.19268,64.55617-31.55727,80.94449-40.0985,7.29827-60.00288,28.86968-38.10806,53.91186s170.05853,29.5654,175.4857,10.44564c2.965-10.44564-6.92958-37.45957-23.57417-44.232C937.03291,585.507,944.09443,522.71216,944.09443,522.71216Z"/><path class="cls-6" d="M1043.84811,819.82575s34.248-21.89482,62.73821-22.22656,27.495,33.70995,20.52846,38.15006-69.3336,4.44012-69.3336,4.44012Z"/><path class="cls-6" d="M889.65528,637.89178s58.33178,18.47,67.73626,29.23507c22.98369,26.30892,28.05483,136.24012,42.39788,142.01862s50.20068,2.10127,50.20068,2.10127l17.92881,32.04441s-61.47022,24.68994-91.69307,13.13295-43.02915-83.52557-43.02915-83.52557-26.12485,72.09013,10.245,100.92184c9.89062,8.86963,15.36756,12.37175,15.36756,12.37175l-33.29637,10.68147s-93.23926-88.92445-128.437-171.00527c-11.88877-27.72451,7.27853-69.42854,5.50135-88.339-1.028-10.93856,26.02616-7.396,50.24749-3.36112C871.67014,637.30755,888.80062,640.745,889.65528,637.89178Z"/><path class="cls-5" d="M900.20483,645.09191l-10.92356-1.6587-33.52956-8.53329s3.64914,25.452,5.63957,32.75029,22.29795,136.20415,22.29795,136.20415l18.82971-2.57213Z"/><path class="cls-4" d="M1104.93632,1360.59069H1092.662s-15.59177,0-36.15963-6.96653-34.16919-25.719-34.16919-25.719l-3.64913,32.38471h-12.27437l-1.68987-64.63643s17.91508-14.00612,65.265,15.55853c21.806,12.31419,38.26893,40.15375,38.26893,40.15375s7.96176,7.83429-3.31739,9.225"/><path class="cls-6" d="M1029.99085,1168.87327s12.1864,126.6615,39.99393,141.914c0,0-13.64833.17912-24.87219,7.975-10.38082-19.64995-40.39283-23.53353-40.39283-23.53353V1166.14126C1010.86678,1166.14126,1029.99085,1168.87327,1029.99085,1168.87327Z"/><path class="cls-6" d="M1195.1183,1251.8398s-127.7496,23.10971-216.5585,22.59754c-24.53373-.13952-46.10762-2.07547-61.18514-6.81266,32.97514-273.54634-49.28127-275.13782-130.68149-273.90922-8.92563-10.90794-14.39812-21.26668-17.13459-31.06735C749.71569,891.44848,874.80381,850.283,874.80381,850.283l137.16876,2.72715C1153.2548,867.3617,1195.1183,1251.8398,1195.1183,1251.8398Z"/><path class="cls-6" d="M917.37466,1267.62468c32.97514-273.54634-49.28127-275.13782-130.68149-273.90922-8.92563-10.90794-14.39812-21.26668-17.13459-31.06735,32.23075-5.70517,119.38272-14.41653,160.9856,47.35485,40.91415,60.76636,47.17807,206.62785,48.01562,264.43438C954.02607,1274.29782,932.45218,1272.36187,917.37466,1267.62468Z"/><path class="cls-6" d="M769.55858,756.54031s15.37135,92.56394-78.018,156.26553C718.41148,971.192,782.021,1019.00765,818.26512,1024.1644c71.01615-111.6903,61.7823-163.70123,61.7823-163.70123"/><path class="cls-6" d="M878.215,552.23985,848.84591,624.6381S863.872,647.17718,878.215,650.59219s19.12406-10.245,19.12406-10.245-7.513-23.22209,0-51.90819C888.46005,561.11888,878.215,552.23985,878.215,552.23985Z"/><path class="cls-6" d="M944.28061,509.385s2.02093,99.52729-35.5442,96.11228S863.189,560.43587,863.189,560.43587s-23.90508.683-23.90508-17.07506,21.85608-10.928,21.85608-10.928,5.71191-45.0102,59.48312-27.02193C938.35489,492.82339,941.00881,500.35962,944.28061,509.385Z"/><path class="cls-6" d="M922.5841,648.39454l-26.36019-13.49462s-.5764,74.73942,1.11514,110.033,0,64.2,0,64.2H908.3193l18.90916-104.68382L910.30974,680.228l20.23152-1.38407S930.12907,652.65727,922.5841,648.39454Z"/><line class="cls-3" x1="1244.48912" y1="199.87467" x2="1244.48912" y2="384.7864"/><polygon class="cls-5" points="1179.499 424.647 1309.48 424.647 1244.489 381.32 1179.499 424.647"/><line class="cls-3" x1="1435.12811" y1="199.87467" x2="1435.12811" y2="384.7864"/><polygon class="cls-5" points="1370.138 424.647 1500.119 424.647 1435.128 381.32 1370.138 424.647"/><line class="cls-6" x1="360.67356" y1="1360.59069" x2="1965.42097" y2="1360.59069"/><rect class="cls-6" x="1469.60448" y="888.90099" width="21.23134" height="469.35662"/><rect class="cls-6" x="968.01407" y="888.90099" width="21.23134" height="469.35662"/><rect class="cls-4" x="895.03134" y="850.28239" width="666.79678" height="37.7186" rx="18.85928"/><polygon class="cls-5" points="1283.224 840.189 1106.586 840.189 1152.248 694.793 1328.886 694.793 1283.224 840.189"/><polygon class="cls-6" points="1291.636 840.189 1114.998 840.189 1160.659 694.793 1337.297 694.793 1291.636 840.189"/><rect class="cls-6" x="1114.99765" y="840.18937" width="176.63802" height="9.61295"/><rect class="cls-6" x="982.81954" y="840.18937" width="132.17811" height="9.61295"/><path class="cls-6" d="M849.712,622.15543l-48.255.04644,33.62483,42.94957,14.63014-2.76813-14.63014,35.29362s37.18844,74.73942,39.17888,90.65615l4.64435,65.743s10.13382-54.6705,10.37474-92.73224S860.32762,633.13788,849.712,622.15543Z"/><path class="cls-6" d="M982.81954,798.26267s40.23955-11.72147,55.9419-10.83683,51.97255,24.76989,44.67428,37.59716-37.376,16.587-53.52067,6.19248c-17.47163-13.93307-19.46206-14.81771-23.44294-14.81771s-27.84237,6.63479-27.84237,6.63479Z"/><path class="cls-6" d="M807.4283,630.93768s-71.9123,1.98-72.96787,47.55542c-1.168,50.42908,56.84249,171.25028,104.82341,182.4705S992.21212,822.809,992.21212,822.809l6.18762-34.624-137.6298,18.80019L807.18273,704.91536"/><rect class="cls-6" x="1413.1138" y="793.37955" width="45.1166" height="56.42277"/><path class="cls-6" d="M1408.24828,765.0711l13.26959,28.30845h7.96175l-16.36582-30.96237S1406.479,761.29664,1408.24828,765.0711Z"/><polygon class="cls-6" points="1440.095 793.38 1458.23 743.176 1475.26 743.176 1457.677 792.274 1440.095 793.38"/><polygon class="cls-6" points="1429.48 765.403 1430.917 792.827 1434.013 792.827 1432.908 764.739 1429.48 765.403"/></g></svg>