<?xml version="1.0" encoding="utf-8"?>
<!-- Generator: Adobe Illustrator 18.1.0, SVG Export Plug-In . SVG Version: 6.00 Build 0)  -->
<svg version="1.1" xmlns="http://www.w3.org/2000/svg" xmlns:xlink="http://www.w3.org/1999/xlink" x="0px" y="0px"
	 viewBox="0 0 750 500" enable-background="new 0 0 750 500" xml:space="preserve">
<g id="BACKGROUND">
	<rect x="0" y="0" fill="#FFFFFF" width="750" height="500"/>
</g>
<g id="OBJECTS">
	<g>
		<g>
			<g>
				<g>
					<g>
						<path fill="#FFF7C4" d="M748.6,43.5c-28.7,11.1-61.3,25.9-77.7,53.4c-7.6,12.8-8.9,26-5.5,40.4c2,8.5,4.8,16.9,4.7,25.8
							c-0.1,7.8-2.1,15.5-6,22.2c-15.3,26.6-51.8,32.5-79.7,33.3c-34.8,1-68.5-7.5-102.4-14.4c-34.2-7-68.8-11.2-103.4-4.7
							c-15.1,2.8-30,7.5-43.8,14.6c-14.7,7.6-26.1,18.9-38.9,29c-14.1,11.2-31.1,19.3-49.5,18.5c-15.7-0.7-29.8-8.4-40.5-19.6
							c-11.4-11.9-19.7-27.4-25.7-42.7c-6.6-16.8-8.6-34.5-12.8-52c-15.1-63.4-80-96.5-140.7-101.5c-8.6-0.7-17.3-0.9-26-0.5
							C-1,45.3-1,48,0.7,47.9c63.7-2.7,142.6,25.8,162.2,92.9c5.1,17.3,6.5,35.5,12.3,52.7c5.2,15.3,12.7,30.2,22.5,43
							c7.7,10.1,17.5,18.6,29.3,23.5c14.4,5.9,30.5,5.4,45,0c14.9-5.5,26.6-15.7,38.5-25.9c13.3-11.4,27.7-19.9,44.3-25.6
							c34-11.6,70.1-11.5,105.2-5.6c34.3,5.7,67.9,15.8,102.8,18c27.7,1.8,59.1,0.1,83.4-14.5c11.4-6.9,20.7-17.2,24.4-30.1
							c4.4-15.2-0.9-29-3.8-43.9c-7.2-36.5,29-61.5,57.5-75.4c8.1-4,16.4-7.5,24.9-10.7C750.9,45.4,750.2,42.9,748.6,43.5
							L748.6,43.5z"/>
					</g>
				</g>
				<g>
					<path fill="#FFF7C4" d="M0.4,105.5c39.6-5.1,88.5,2.9,115.8,22.5c27.9,20,38.1,47.8,53.9,73c15.8,25.2,43,50.9,83.7,55.1
						c10.5,1.1,21.5,0.6,31.3-2.2c23.5-6.8,34.3-25,54.7-35.3c24.9-12.6,60.1-11.4,90.1-5.5c30,5.9,58.2,16,89,19.8
						c39.5,4.9,82.9-1.9,111.6-20.5c28.7-18.6,39.5-45.8,50.6-71.3c11.1-25.6,34.3-53,66.9-68.5l-0.7,316.2l-748.3,0.4L0.4,105.5z"
						/>
				</g>
			</g>
			<g>
				<ellipse fill="#FFF7C4" cx="239.8" cy="201.8" rx="5.3" ry="5.5"/>
				<ellipse fill="#FFF7C4" cx="601" cy="77.4" rx="4" ry="4.1"/>
				<ellipse fill="#FFF7C4" cx="644.4" cy="149.5" rx="4" ry="4.1"/>
				<ellipse fill="#FFF7C4" cx="160" cy="30.6" rx="7.3" ry="7.6"/>
				<ellipse fill="#FFF7C4" cx="268.4" cy="264.4" rx="6" ry="6.2"/>
				<ellipse fill="#FFF7C4" cx="535.8" cy="32.7" rx="9.3" ry="9.6"/>
				<ellipse fill="#FFF7C4" cx="533.1" cy="207.3" rx="5.3" ry="5.5"/>
				
					<ellipse fill="#FFD324" stroke="#FFD324" stroke-width="0.9164" stroke-miterlimit="10" cx="665.2" cy="63.3" rx="9.3" ry="9.6"/>
				
					<ellipse fill="#FFD324" stroke="#FFD324" stroke-width="0.9164" stroke-miterlimit="10" cx="56.6" cy="83.9" rx="9.3" ry="9.6"/>
			</g>
			<g>
				
					<ellipse fill="#FFD324" stroke="#FFD324" stroke-width="0.9164" stroke-miterlimit="10" cx="426.7" cy="106.6" rx="3" ry="3.1"/>
				<ellipse fill="#FFD324" stroke="#FFD324" stroke-width="0.9164" stroke-miterlimit="10" cx="299" cy="82.9" rx="7" ry="7.2"/>
				
					<ellipse fill="#FFD324" stroke="#FFD324" stroke-width="0.9164" stroke-miterlimit="10" cx="240.2" cy="228.3" rx="6" ry="6.2"/>
				
					<ellipse fill="#FFD324" stroke="#FFD324" stroke-width="0.9164" stroke-miterlimit="10" cx="102.5" cy="298.4" rx="6" ry="6.2"/>
				
					<ellipse fill="#FFD324" stroke="#FFD324" stroke-width="0.9164" stroke-miterlimit="10" cx="140.4" cy="223.2" rx="3" ry="3.1"/>
				
					<ellipse fill="#FFD324" stroke="#FFD324" stroke-width="0.9164" stroke-miterlimit="10" cx="622.3" cy="309.8" rx="10" ry="10.3"/>
				
					<ellipse fill="#FFD324" stroke="#FFD324" stroke-width="0.9164" stroke-miterlimit="10" cx="629.2" cy="253.1" rx="4" ry="4.1"/>
			</g>
			<g>
				<ellipse fill="#FFFFFF" cx="669.5" cy="232.8" rx="7.3" ry="7.6"/>
				<ellipse fill="#FFFFFF" cx="724.7" cy="204.6" rx="4" ry="4.1"/>
				<ellipse fill="#FFFFFF" cx="62.9" cy="329.7" rx="6" ry="6.2"/>
				<ellipse fill="#FFFFFF" cx="47.6" cy="137.9" rx="6.7" ry="6.9"/>
				<ellipse fill="#FFFFFF" cx="136.1" cy="151.7" rx="6.7" ry="6.9"/>
				<ellipse fill="#FFFFFF" cx="716.7" cy="357.9" rx="8" ry="8.3"/>
			</g>
		</g>
		
			<rect x="0.7" y="384.7" fill="#FFD324" stroke="#FFD324" stroke-width="0.8315" stroke-miterlimit="10" width="748.7" height="115.2"/>
	</g>
	<g>
		<g>
			<g>
				<g>
					<g>
						<polygon fill="#E0815E" points="315.8,367.2 320,385.6 348.1,385.6 348.1,383.3 332.1,374.1 330.2,367.5 						"/>
						<polygon fill="#B8532E" points="324.1,367.5 320,385.6 315.8,367.2 						"/>
						<path fill="#FFFFFF" stroke="#FFFFFF" stroke-width="0.7435" stroke-miterlimit="10" d="M332.3,374.1l-4.8,5.1
							c-1.2,1.3-3.2,1.4-4.5,0.1l-5.4-5.4l2.6,11.7h28.1v-2.2L332.3,374.1z"/>
					</g>
				</g>
				<g>
					<g>
						<polygon fill="#E0815E" points="238.3,367 234.1,385.4 206,385.4 206,383.1 222,373.9 223.2,367.3 						"/>
						<polygon fill="#B8532E" points="229.4,367.1 238.3,367 234.1,385.4 						"/>
						<path fill="#FFFFFF" stroke="#FFFFFF" stroke-width="0.7435" stroke-miterlimit="10" d="M221.7,373.9l4.8,5.1
							c1.2,1.3,3.2,1.4,4.5,0.1l5.4-5.4l-2.6,11.7h-28.1v-2.2L221.7,373.9z"/>
					</g>
				</g>
				<g>
					<path d="M299.5,221.5l30.6,146.2l-15.5-0.4l-36-99.6c-1.4-4.2-6-4.2-7.5,0l-32.9,100.2l-17.2-0.3c0,0,17.3-83.7,28.8-147.6
						L299.5,221.5z"/>
					<g>
						<path fill="none" stroke="#FFFFFF" stroke-width="0.5224" stroke-miterlimit="10" d="M227.4,368.2"/>
						
							<line fill="none" stroke="#FFFFFF" stroke-width="0.5224" stroke-miterlimit="10" stroke-dasharray="2.6386" x1="311" y1="359.5" x2="328.5" y2="359.5"/>
						
							<line fill="none" stroke="#FFFFFF" stroke-width="0.5224" stroke-miterlimit="10" stroke-dasharray="2.6386" x1="222" y1="359.5" x2="239.5" y2="359.5"/>
					</g>
				</g>
			</g>
			<g>
				<path fill="#E0815E" d="M178,104.1c0,0-3-22.3-4.8-20.9c-1.8,1.5-0.5,10.9-1.4,12.1c-0.9,1.2-7.4-18.5-10.2-17.4
					c-1.9,0.7,4.3,12.7,3.9,13c-0.6,0.4-6.8-12.1-7.8-10c-1.8,3.5,5.2,13.4,4,13.1c-0.6-0.1-5.1-10.5-6.3-9c-1.2,1.5,3.4,9.7,4,11.5
					c0.6,1.8-2.8-6.4-4.2-4.7c-0.6,0.7,12.5,25.5,12.5,25.5"/>
				<g>
					<g>
						<path fill="#E0815E" d="M238.4,173.3c1.6,0.7,4.9,1.5,7,2.1l-1.2,54.2h63.6c0,0,0.6-35.6-2.1-62.1l1,0.4
							c12.9,4.5,24.5-3.1,36.9-11.1c10.6-6.8,26.5-19.8,26.5-19.8l-12.3-13.2c0,0-32.3,19.8-40.2,17l-25.1-9.1
							c-2.8-1.4-5.8-2.4-8.6-2.6c-0.2-0.1-0.3-0.1-0.3-0.1l-6.9-3.4l-15,2.8l-5.3,4c-13.4,2.6-29.7,6.9-29.7,6.9s-40.5,5-48.6-35
							l-11.2,11c0,0,10.1,51.8,69.6,58.5"/>
					</g>
				</g>
				<g>
					<g>
						<path fill="#FFD324" stroke="#FFD324" stroke-width="0.9569" stroke-miterlimit="10" d="M323.5,167.6
							c-2.7-8.6-5.2-17.2-7.6-25.9c-0.2-0.6-0.2-1.2-0.2-1.7l-23.4-8.5c-2.8-1.4-5.8-2.4-8.6-2.6c-0.2-0.1-0.3-0.1-0.3-0.1l-6.9-3.4
							l-15,2.8l-5.3,4c-11.4,2.2-24.9,5.6-28.7,6.6c0.2,9.9-2.4,20.2-4.7,29.3c-0.2,1-1,6.4-1.3,7.3c4.4,1.2,21.6-0.7,23.7-0.1
							l-1.2,54.2h63.6c0,0,0.6-35.6-2.1-62.1l1,0.4C312.5,169.9,318,169.5,323.5,167.6z"/>
					</g>
				</g>
				<g>
					<g>
						<path d="M305.4,169.3c-1.5,5.5-5,10.3-8,15.2c-4.6,7.4-9.6,14.5-14.7,21.6c-5.3,7.3-10.9,14.5-16.6,21.4
							c-0.6,0.7-1.1,1.3-1.7,2h43.4c0,0,0.6-34.1-2-60.4C305.7,169.3,305.6,169.3,305.4,169.3z"/>
						<path fill="#E6B243" stroke="#E6B243" stroke-width="0.9569" stroke-miterlimit="10" d="M317.7,148
							c-0.5,8.5-3.1,17.2-9.5,20.4c5.3,1.5,10.3,1,15.3-0.7C321.5,161.1,319.5,154.5,317.7,148z"/>
					</g>
				</g>
				<g>
					<g>
						<path fill="#E0815E" d="M275.8,112.3l2.2,16.4c0,0-7.7,21.2-20.3,3.4l2.7-19.2L275.8,112.3z"/>
						<path fill="#02022B" d="M274.4,95.4l1.5,17.8c0,0-5.1,23.4-15.8-0.8l3.6-17.6L274.4,95.4z"/>
					</g>
					<g>
						<g>
							<g>
								<path fill="#E0815E" stroke="#E0815E" stroke-width="1.0582" stroke-miterlimit="10" d="M255.6,103.3l3.1-0.9l0.7,3.7
									l-3.1,0.9c-1,0.3-1.9-0.3-2.1-1.4l0,0C254,104.6,254.7,103.6,255.6,103.3z"/>
								<path fill="#B8532E" d="M255.9,104.2l1.3-0.4l0.3,1.5l-1.3,0.4c-0.4,0.1-0.8-0.1-0.9-0.6l0,0
									C255.2,104.8,255.5,104.4,255.9,104.2z"/>
							</g>
							<g>
								<path fill="#E0815E" stroke="#E0815E" stroke-width="1.0582" stroke-miterlimit="10" d="M280.3,102.3l-3.2,0.4l-0.3-3.8
									l3.2-0.4c1-0.1,1.8,0.6,1.9,1.7l0,0C282,101.2,281.2,102.2,280.3,102.3z"/>
								<path fill="#B8532E" d="M280.1,99.7l-1.3,0.2l0.1,1.6l1.3-0.2c0.4,0,0.7-0.4,0.7-0.9l0,0C280.9,100,280.5,99.7,280.1,99.7z"
									/>
							</g>
							<path fill="#E0815E" stroke="#E0815E" stroke-width="1.0582" stroke-miterlimit="10" d="M269,118.4
								c-3.1,1-11.6-6.8-11.7-13.1l0-0.5c-0.1-6.4,3.3-16.6,9.3-17.1l0-0.1c5.9-0.5,12.1,9.1,12.2,15.5l0,0.5
								C278.9,110,273.8,118.4,269,118.4z"/>
						</g>
						<g>
							<path fill="#FFFFFF" d="M268.8,112.2L268.8,112.2c-2.6,0.2-4.8-1.4-4.8-3.6l0-0.3l9.4-0.8l0,0.3
								C273.4,110,271.4,112,268.8,112.2z"/>
							<ellipse fill="#02022B" cx="265.3" cy="102.7" rx="0.6" ry="0.8"/>
							<ellipse fill="#02022B" cx="270.9" cy="102.1" rx="0.6" ry="0.8"/>
							<path fill="#B8532E" d="M269.5,106.2l-2.2,0.1c-0.3,0-0.5-0.3-0.4-0.6l0.6-6.7c0.1-0.3,0.5-0.4,0.7-0.1l1.6,6.6
								C269.9,105.8,269.7,106.2,269.5,106.2z"/>
							<path fill="#02022B" d="M262.9,99.3c-0.6,0.5,0.2-1.6,1.1-2c0.9-0.3,1.8,0,2.1,0.8C266.1,98.1,264.4,98.1,262.9,99.3z"/>
							<path fill="#02022B" d="M272.9,96.8c0.7,0.4-0.6-1.5-1.5-1.7c-0.9-0.1-1.8,0.4-1.9,1.2C269.6,96.4,271.2,95.9,272.9,96.8z"/>
						</g>
						<path fill="#02022B" d="M278.5,98.6c0,2.4-3.1-1.4-5.3-6.5c-2,0.7-4.4,1.4-6.8,1.7c-2.1,0.3-4.2,0.3-6,0
							c-1.5,5.3-2.1,10.8-3.3,9.5c-0.5-0.6-1.1-4.7-1.2-5.5c-0.2-1.7-0.3-3.9-0.6-5.4c0,0-1.8-3.4-1.2-4.5c0.6-1.1,2.7-4.8,6.4-3.3
							c0,0,0.7-4,2.9-4c2.1,0,3.6,2,3.6,2s1.8-2.5,4.8-1.8c3,0.7,5.1,2.1,4.6,4.5L278.5,98.6z"/>
					</g>
				</g>
			</g>
			<g>
				<path fill="none" stroke="#000000" stroke-width="1.1968" stroke-linecap="round" stroke-miterlimit="10" d="M260.1,164
					c0.1-1.8,1.5-7.3,2.8-7.3c1.3,0.1,2.1,5.7,2,7.5"/>
				<path fill="none" stroke="#000000" stroke-width="1.1968" stroke-linecap="round" stroke-miterlimit="10" d="M278.6,164.7
					c0.1-1.8,1.5-7.3,2.8-7.3c1.3,0.1,2.1,5.7,2,7.5"/>
				<path d="M290.1,169.3c-0.6,10.2-9.2,18-19.4,17.4c-10.2-0.6-18-9.2-17.4-19.4c0,0,9.4,2.2,17.5,2.5
					C280.6,170.2,290.1,169.3,290.1,169.3z"/>
				<path fill="#EA8363" d="M275.4,181.5c-4.3-3.8-10.1-1.6-12.3,3.1c2.3,1.2,4.9,2,7.6,2.1c2.7,0.1,5.3-0.3,7.6-1.2
					C277.6,183.9,276.6,182.6,275.4,181.5z"/>
			</g>
		</g>
		<g>
			<g>
				<path fill="#D47B69" stroke="#D47B69" stroke-width="1.0185" stroke-miterlimit="10" d="M476.3,105.7l-3,0.8l-0.8-3.6l3-0.8
					c0.9-0.3,1.8,0.3,2,1.3l0,0C477.8,104.5,477.2,105.5,476.3,105.7z"/>
				<path fill="#D47B69" stroke="#D47B69" stroke-width="1.0185" stroke-miterlimit="10" d="M453,110.1l2.9-1.3l1.2,3.4l-2.9,1.3
					c-0.9,0.4-1.9-0.1-2.2-1l0,0C451.6,111.5,452.1,110.4,453,110.1z"/>
				<path fill="#AB4848" stroke="#AB4848" stroke-width="1.0185" stroke-miterlimit="10" d="M453.4,110.9l1.2-0.5l0.5,1.4l-1.2,0.5
					c-0.4,0.2-0.8,0-0.9-0.4l0,0C452.8,111.5,453,111.1,453.4,110.9z"/>
				<path fill="#AB4848" stroke="#AB4848" stroke-width="1.0185" stroke-miterlimit="10" d="M475.8,103.3l-1.2,0.3l0.3,1.5l1.2-0.3
					c0.4-0.1,0.6-0.5,0.5-0.9l0,0C476.6,103.4,476.2,103.2,475.8,103.3z"/>
				<path fill="#D47B69" stroke="#D47B69" stroke-width="1.1389" stroke-miterlimit="10" d="M509.2,60.2c0,0-9.5-8-7.9-8.5
					c1.6-0.4,3.9,3.9,6.4,1.9c2.4-2-0.1-17.6,0.8-17c0.9,0.6,3.1,8.2,3.1,8.2s-0.9-10.5,0.2-10.7c1.1-0.2,2.7,9.3,2.7,9.3
					s0.7-9.7,1.6-9.4c1,0.3,0.6,9.5,0.6,9.5s1.4-6.1,2-4.6c0.6,1.6-1.4,13.9-1.4,13.9L509.2,60.2z"/>
				<polygon fill="#D47B69" points="512.6,358.3 518.5,383.3 546.1,383.3 546.1,381.1 530.4,372 528.2,358.2 				"/>
				<polygon fill="#D47B69" points="442.7,359.3 433.9,383.4 406.3,383.3 406.3,381.1 422,372 426.6,359.9 				"/>
				<path d="M461,221.9l-38,143.9l20.4,1.3l43.3-103c1.4-4.1,6-4.1,7.4,0l15.5,103.7l21.6-2.5c0,0,1.8-96.4-24.5-164.2L461,221.9z"
					/>
				<g>
					
						<line fill="none" stroke="#FFFFFF" stroke-width="0.6306" stroke-miterlimit="10" x1="508.6" y1="357.8" x2="531.2" y2="354.9"/>
					
						<line fill="none" stroke="#FFFFFF" stroke-width="0.6306" stroke-miterlimit="10" x1="424.2" y1="355.9" x2="447.2" y2="358.4"/>
				</g>
				<path fill="#D47B69" stroke="#D47B69" stroke-width="1.1389" stroke-miterlimit="10" d="M457.2,137.9l25.5-5.2
					c16.9-9.4,26.1-14.4,34.4-22.2c2.2-9.8-7.5-50.2-7.5-50.2l7.5-6.4c0,0,52,78.6-7.5,103.2l1.9,58c0,0-21.1,10.1-58,11.3
					l-10.3-56.3"/>
				<path fill="#AB6262" d="M445.7,168.6c27.1,77.3,66.2,47.6,66.2,47.6s-22.1,10.8-61.5,14l-7.1-60.1"/>
				<path fill="#FFD324" stroke="#FFD324" stroke-width="0.9569" stroke-miterlimit="10" d="M457.7,137l25.1-4.3
					c12.2-6.8,20.4-11.3,27.1-16.2c6.5,8.8,16.2,20.3,22.6,29.3c-4.4,5.5-14,7.7-22.8,11.3l8.8,61.1c0,0-31.8,10.8-68.7,12.1
					l-8.6-68.1l4.1-22.3L457.7,137z"/>
				<path d="M441.3,166.7c14.9,27.4,44.9,41.7,74.5,52.3c-8.4,2.6-35.5,10.2-66.1,11.2l-6.5-60.1"/>
				<g>
					<path fill="#D47B69" stroke="#D47B69" stroke-width="1.1389" stroke-miterlimit="10" d="M360.2,121.2c0,0,3.1-11.5,1.7-11.4
						c-0.9,0.1-2.5,2.1-3.5,3.5c-0.5,0.6-1.5,0.5-1.9-0.2c-1.3-2.3-3.5-6.4-5-9.5c-2.2-4.4-3.5-4.1-1.1,4c2.4,8.1-4-6.2-4.9-5.6
						c-0.9,0.6,2.7,8.4,2.1,9.3c-0.6,0.8-4.1-7.3-5.8-6.9c-1.7,0.4,3.1,8,2.9,8.7c-0.2,0.6-3.6-4.7-4.3-4.4
						c-2.3,1.1,7.7,14.4,8.7,15.2C350,124.8,360.2,121.2,360.2,121.2z"/>
					<path fill="#D47B69" stroke="#D47B69" stroke-width="1.1389" stroke-miterlimit="10" d="M443.3,167.5c0,0-62.3,42.7-95.1-44.3
						l10.9-4.1l12.1,20.9c3.5,4.8,8,10.3,20.6,11.8c15.1,1.9,33.6,1.2,42.6-11.9"/>
					<path fill="#AB6262" d="M443.3,167.5c0,0-62.3,42.7-95.1-44.3c0,0,23.5,68,95.8,41.5"/>
					<path fill="#FFD324" stroke="#FFD324" stroke-width="0.9569" stroke-miterlimit="10" d="M449.1,139.2
						c-15.3-3.8-36.5,11.9-48.5,12.8c3,8.6,5.6,17.2,8.1,26c19.3,0,35.3-3.7,35.3-3.7"/>
					<path d="M444.9,173.9c0,0-16.9,4-36.2,4c-0.5-1.6-1-3.3-1.5-4.9c11.1,0.7,27.5-2.7,37.7-7.4"/>
					<path fill="#AB6262" d="M357.7,113.2l-1.4,2.6l-1.5-6.8C354.8,109,357.2,113.3,357.7,113.2z"/>
				</g>
				<path fill="#D47B69" stroke="#D47B69" stroke-width="1.0185" stroke-miterlimit="10" d="M473.5,115.9l5.1,17.9
					c0,0-6.8,16-19.6,3.4l0-18.7L473.5,115.9z"/>
				<path fill="#162447" d="M470,99.9l4.1,17.3c0,0-4.3,19.6-15.1,2.6l0.8-18.8L470,99.9z"/>
				<path fill="#D47B69" stroke="#D47B69" stroke-width="1.0185" stroke-miterlimit="10" d="M468.2,122.1l-0.2,0.2
					c-6.5,2.2-12.2-4.5-13.1-10.5l-0.1-0.5c-1-6.1,2.1-13.6,7.7-14.8l0,0c5.6-1.3,11.5,4.2,12.5,10.3l0.1,0.5
					C476,113.2,476,120.9,468.2,122.1z"/>
				<path fill="#FFFFFF" d="M466.4,114.9L466.4,114.9c-1.8,0.4-3.5-0.8-3.9-2.7l0-0.3l6.5-1.6l0,0.3
					C469.4,112.5,468.2,114.4,466.4,114.9z"/>
				
					<ellipse transform="matrix(0.9836 -0.1801 0.1801 0.9836 -11.9107 84.9949)" fill="#162447" cx="462.1" cy="108.1" rx="0.5" ry="0.9"/>
				
					<ellipse transform="matrix(0.9573 -0.289 0.289 0.9573 -10.837 139.6616)" fill="#162447" cx="467.5" cy="106.5" rx="0.5" ry="0.9"/>
				<path fill="#AB3A3A" d="M466.4,110.3l-2.1,0.4c-0.3,0.1-0.5-0.2-0.4-0.4l-0.3-5.3c0.1-0.3,0.4-0.4,0.6-0.1l2.4,4.9
					C466.8,109.9,466.7,110.2,466.4,110.3z"/>
				<path fill="#162447" d="M458.3,105.9c-0.5,0.6-0.6-2.2,0.2-2.6c0.8-0.4,2.3,0.4,2.6,1.1C461.2,104.4,459.5,104.5,458.3,105.9z"
					/>
				<path fill="#162447" d="M469.1,103.2c0.7,0.3-0.9-2.1-1.8-2.1c-0.9,0-1.4,1.4-1.4,2.1C465.8,103.2,467.3,102.6,469.1,103.2z"/>
			</g>
			<g>
				<path fill="#FFFFFF" stroke="#FFFFFF" stroke-width="0.9569" stroke-miterlimit="10" d="M516.8,383.3h31.8
					c0,0-0.6-12.1-17.8-12.4l-9.5,7.3l-6-7.3L516.8,383.3z"/>
				<path fill="#FFFFFF" stroke="#FFFFFF" stroke-width="0.9569" stroke-miterlimit="10" d="M437,383.3h-31.8
					c0,0,0.6-12.1,17.8-12.4l9.5,7.3l6-7.3L437,383.3z"/>
			</g>
			<g>
				<path fill="#162447" d="M458.9,97.8c0.6,0.6,1.2,1.2,1.9,1.5c0.7,0.3,1.7,0.4,2.3-0.1c0.5-0.4,0.7-1.1,1.1-1.6
					c0.3-0.6,1-1.1,1.6-0.9c0.9,0.3,1,1.6,1.9,2c0.7,0.2,1.3-0.3,1.9-0.8c0.8,1.9,2.3,3.4,4.1,4.2c-0.3-0.8-0.1-1.7,0-2.5
					c0.1-0.8,0.2-1.8-0.4-2.4c-0.2-0.2-0.3-0.3-0.4-0.5c0-0.2,0-0.3,0-0.5c0.6-2.6-0.9-5.2-2.6-7.3c-0.5-0.6-0.9-1.1-1.5-1.5
					c-0.6-0.4-1.4-0.6-2.1-0.3c-0.7,0.2-1.2,1-1,1.7c-0.7-0.2-1.2-0.7-1.8-0.9c-0.9-0.2-2,0.4-2.2,1.4c-0.5-0.8-0.9-1.6-1.7-2.1
					c-1.6-1.1-4-0.4-4.9,1.2c-1,1.6-0.7,3.8,0.4,5.4c-0.8,0-1.7,0.1-2.4,0.7c-0.6,0.5-0.8,1.7-0.1,2.2c-1.1,0.1-2.5,0.4-2.8,1.4
					c-0.2,0.6,0,1.3,0.3,1.8c0.4,0.7,0.9,1.4,1.5,1.9c-0.6,0.1-1,0.7-1.1,1.2c-0.1,0.6,0.1,1.1,0.3,1.7c0.7,1.8,1.7,3.5,3,5
					c0.6-1.1,1-2.5,1-3.8c0-0.6-0.1-1.1,0.2-1.6c0.4-0.8,1.4-1.3,1.4-2.2c0-0.5-0.3-1-0.1-1.4c0.2-0.4,0.7-0.4,1.1-0.6
					c0.9-0.3,1.5-1.5,1.2-2.4"/>
			</g>
			<g>
				<path fill="none" stroke="#000000" stroke-width="1.1968" stroke-linecap="round" stroke-miterlimit="10" d="M465.4,169.5
					c-0.4-1.8-0.7-7.4,0.6-7.7c1.3-0.3,3.6,4.9,4,6.6"/>
				<path fill="none" stroke="#000000" stroke-width="1.1968" stroke-linecap="round" stroke-miterlimit="10" d="M483.3,164.9
					c-0.4-1.8-0.7-7.4,0.6-7.7s3.6,4.9,4,6.6"/>
				<path d="M495.6,166c2.4,9.9-3.7,19.8-13.6,22.2c-9.9,2.4-19.8-3.7-22.2-13.6c0,0,9.6-0.6,17.5-2.6
					C486.8,169.5,495.6,166,495.6,166z"/>
				<path fill="#EA8363" d="M485,181.9c-5.2-2.4-10.1,1.4-10.9,6.4c2.5,0.5,5.2,0.5,7.9-0.1c2.6-0.6,5-1.8,7-3.3
					C487.8,183.6,486.5,182.6,485,181.9z"/>
			</g>
		</g>
		<g>
			<g>
				<g>
					<path fill="#FFA38A" d="M572.5,338.1c-3.5-3.8-7.4-5.3-10.5-14.3c0,0-0.3-48.2-4.5-62c9.8-10.2,29.7-13.2,39.7-16.6
						c2.3-0.8,4.7-1.2,7.1-1.4c11.8-1.1,25.8-9.1,29.9-27.6c1.1-0.8-13.8-9.6-17-19l-23.7,6.7c-18.1,9.9-29.1,13.8-46,28
						c-17.2,14.5-20.5,17.9-7.4,62.1c3.2,13.4,14.1,52.7,14.1,52.7S553,368.7,553,369c0,0.3,13.5-16.1,19.7-23.7
						C574.4,343.2,574.4,340.1,572.5,338.1z"/>
					<path fill="#151CC8" d="M565.4,329.8c-4.1,4.4-9.7,11.1-13.1,16c0.4,1.6,0.7,2.5,0.7,2.5s-1.2,22.1-1.2,22.4
						c0,0.3,15-18.3,21.3-25.9c1.7-2.1,1.7-5.2-0.2-7.2C570.4,335.1,567.8,333.5,565.4,329.8z"/>
					<path fill="#0F1B4E" stroke="#0F1B4E" stroke-width="0.9559" stroke-miterlimit="10" d="M617.1,197.1l-23.7,6.7
						c-18.1,9.9-29.1,13.8-46,28c-17.2,14.5-20.5,17.9-7.4,62.1c1.9,8.2,6.8,26,10.3,38.6c3.7-4.4,10.7-6.8,14.6-11.1
						c-0.2-11.9-4-48.3-7.4-59.7c9.8-10.2,29.7-13.2,39.7-16.6c2.3-0.8,4.7-1.2,7.1-1.4c11.8-1.1,25.8-9.1,29.9-27.6
						C635.3,215.3,620.4,206.5,617.1,197.1z"/>
					<path opacity="0.21" d="M617.1,197.1l-22.7,6.5c-4.5,18.4-8.3,33.1-19.5,48.1c8.2-2.9,16.7-4.6,22.2-6.5
						c2.3-0.8,4.7-1.2,7.1-1.4c11.8-1.1,25.8-9.1,29.9-27.6C635.3,215.3,620.4,206.5,617.1,197.1z"/>
					<g>
						<g>
							<path fill="#FFA38A" stroke="#FFA38A" stroke-width="0.9559" stroke-miterlimit="10" d="M591.4,155.7
								c-8.1-3.3-28.1-15.7-35.2-25.7c-1.5-2.2-2.7-4.6-3.3-7.1c-2.4-9.3-5.3-26.6-5.3-26.6L546,81.8c-3.5-12.1-2.8-17.6-2.8-17.6
								l2.2,8L545,60.8c0-0.3,0.6,0.6,0.6,0.9l2,9.2l0.4-11.4c0-0.3,0.4-0.3,0.4,0l2.2,11.5c0,0,0.6-10.9,1.2-9.8
								c0.7,1.1,1.8,14,1.8,14s2.7-7.9,3.2-6.6c0.4,0.8-0.8,6.1-1.7,9.8c-0.6,2.3-1.3,2.4-0.9,4.8l12.5,35
								c1.6,4.1,8.9,10.2,31.3,18.2c0,0,0,1.4-1.8,10.1C594.8,155.1,591.4,155.7,591.4,155.7z"/>
							<path fill="#FFD324" stroke="#FFD324" stroke-width="0.9569" stroke-miterlimit="10" d="M577.1,127.1
								c-2.2,5.4-4.4,10.7-6.6,16.1c7.8,5.7,16.3,10.6,21,12.5c0,0,3.4-0.5,5.1-9.2c1.7-8.7,1.8-10.1,1.8-10.1
								C588.7,132.9,581.9,129.8,577.1,127.1z"/>
							<path d="M592.1,134c-4.2,5.1-8.3,10.2-12.4,15.4c4.7,2.9,8.9,5.1,11.7,6.3c0,0,3.4-0.5,5.1-9.2c1.7-8.7,1.8-10.1,1.8-10.1
								C596.1,135.5,594,134.8,592.1,134z"/>
							<path fill="#CF5E3C" d="M554.8,81.7c-0.9,0.1-2,0.6-1.9,1.1c0.1,0.6,1.4,1,2.2,0.9"/>
							<path fill="#CF5E3C" d="M554.1,72.6c0,0-1.9,3.1-1.8,3l1.3-7.3L554.1,72.6z"/>
						</g>
						<g>
							<path fill="#FFA38A" d="M598,137.4c-0.7,0.6-12.1,18.5-11.5,26.7c0.5,5.5,10,26,12.6,36.8c0,0,14.4-3.1,24.5-6.6
								c1.5-8.4,12.4-42.5,2.5-56.5c0,0-12-1.5-14.7-1.6C611.4,136.2,599.4,147.4,598,137.4z"/>
						</g>
						<g>
							<path fill="#FFD324" stroke="#FFD324" stroke-width="0.9569" stroke-miterlimit="10" d="M597.1,194
								c9.1-0.5,24.3-2.5,33.4-3.7c2.7-11.7,4.6-39.9-4.3-52.6c0,0-12-1.5-14.7-1.6c0,0-12.1,11.2-13.4,1.2
								c-0.7,0.6-12.1,18.5-11.5,26.7C587,168.5,593.4,182.9,597.1,194z"/>
						</g>
						<g>
							<path d="M628.2,141.3c-3.8,17.8-9.9,34.9-17.4,51.4c7-0.8,14.4-1.7,19.7-2.4C633,179.6,634.8,155.1,628.2,141.3z"/>
						</g>
						<g>
							<path fill="#FFA38A" stroke="#FFA38A" stroke-width="0.9559" stroke-miterlimit="10" d="M625.7,156.6
								c30.7-14,31.3-18.7,34-27.8c4-13.4,5.8-44,5.8-44c3.8-11.8,4.8-17.2,3.9-17.3c-0.6-0.1-2.9,7.8-2.9,7.8l0.8-11.2
								c0-0.3-0.6,0.6-0.6,0.8l-2.3,9l0.1-11.3c0-0.3-0.4-0.3-0.4,0l-2.6,11.2c0,0-0.1-10.8-0.8-9.8c-0.7,1.1-2.3,13.7-2.3,13.7
								s-2.2-7.9-2.8-6.7c-0.4,0.8,0.5,6.1,1.2,9.7c0.4,2.3,1.2,2.5,0.7,4.8l-3.5,17.2c-2.7,14.6-12.3,32.1-33.5,35.3
								c0,0-7.7,5.6-6.4,14.3C615.4,161.1,625.7,156.6,625.7,156.6z"/>
						</g>
						<g>
							<path fill="#FFD324" stroke="#FFD324" stroke-width="0.9569" stroke-miterlimit="10" d="M633.1,134c-3.7,2-7.8,3.4-12.6,4.2
								c0,0-7.7,5.6-6.4,14.3c1.3,8.7,11.7,4.2,11.7,4.2c5.6-2.6,10.2-4.8,14-6.8C637.5,144.5,635.3,139.3,633.1,134z"/>
						</g>
					</g>
					<g>
						<path d="M593.6,128.2c-4-5.9-8.3-20.5,1.3-27.6c8.7-6.4,7.3-5.3,9.2-6.3c5.1-2.6,11.3-6.9,17.6-3.7c0,0,8.9,1.5,8.7,7.2
							c-0.2,5.7-1.7,10.2,1.7,11.7c3.4,1.5,4.7,1.9,3.4,6.8c-1.3,4.9-4.7,13.4-6.4,13.8C627.4,130.5,593.6,128.2,593.6,128.2z"/>
						<circle fill="none" stroke="#151CC8" stroke-width="0.9559" stroke-miterlimit="10" cx="596.1" cy="115.7" r="5.5"/>
						<path fill="#FFA38A" d="M617.9,111.1c0,0.3,0.2,0.5,0.5,0.5c1.2,0.1,3.8-0.1,4.1,3c0.2,3.1-2.8,4.6-4.5,4.6
							c-0.5,0-1.7,0-2,0.4c-1.1,1.1-1.3,5.5-1.3,8.8c-0.2,10.8,0.8,13-0.4,10.6c0,0-17.4,8.7-16.7-0.2c0,0,3.2-19.5,3.1-19.6
							c-1.3-1.5-6.8-2.4-2.8-13.8c3.8-10.6,11.7-9.5,13.7-9C613.1,96.8,619,97.4,617.9,111.1z"/>
						<circle fill="none" stroke="#151CC8" stroke-width="0.9559" stroke-miterlimit="10" cx="617.1" cy="122.5" r="5.5"/>
						<g>
							<path fill="#CF5E3C" d="M621.1,115.4c0,0-1.6-3.9-4.2,1.1"/>
							
								<ellipse transform="matrix(7.386348e-002 -0.9973 0.9973 7.386348e-002 449.7366 710.9085)" fill="#FF8F70" cx="607.6" cy="113.3" rx="2.7" ry="2.7"/>
							<path fill="#FF8F70" d="M596.4,111c1.3-0.2,2.3-1.2,2.4-2.5c0.1-1-0.4-1.9-1.2-2.5C597.6,106.1,596.3,109,596.4,111z"/>
							<path fill="#FFFFFF" d="M598.8,109.8l4,2.3c0,0-2.1,1.4-3.2,0.5C598.6,111.7,598.8,109.8,598.8,109.8z"/>
							<path fill="#CF5E3C" d="M603.2,105.2l-1.7,4.6l-1-0.5c-0.2-0.1-0.2-0.3,0-0.5L603.2,105.2z"/>
							<path d="M607,106.6c0.3,0.5,0.2-1.2-0.4-1.7c-0.6-0.4-1.3-0.4-1.7,0.1C604.9,105,606.2,105.4,607,106.6z"/>
							<path d="M599.7,103.5c-0.6,0.1,0.7-1,1.4-0.9c0.7,0.1,1.2,0.7,1.1,1.3C602.3,103.8,601.2,103.1,599.7,103.5z"/>
							<path fill="none" stroke="#000000" stroke-width="0.404" stroke-miterlimit="10" d="M603.1,109.1c0.3-0.6,1.2-1.9,1.5-1.7
								c0.3,0.1-0.3,1.9-0.6,2.5"/>
							<path fill="none" stroke="#000000" stroke-width="0.404" stroke-miterlimit="10" d="M599.3,107.3c0.3-0.6,1.2-2,1.5-1.9
								c0.3,0.1-0.1,2-0.4,2.6"/>
							<path fill="#CF5E3C" d="M600.5,119.2c0,0,3.1,1.2,5.7,1.2C603.8,123.5,599.6,123.2,600.5,119.2z"/>
						</g>
						<path d="M609.4,90.9c-1.5,0.5-10.1,4.9-10.6,7.8c-0.3,1.5,0.1,2.4,0.1,2.4l8.2-5.4c0,0,0.6,13.6,9.5,16.2
							c1,0.3,5.2-1.5,5.2-1.5S625.4,85.7,609.4,90.9z"/>
					</g>
				</g>
			</g>
			<g>
				<path fill="#FFA38A" d="M597.8,201.3l-5.3,83.4l27.6,75.4l-16.8,23.2l31.2-7.9c0,0-11.8-76.3-18.6-83.4c0,0,25.9-68.2,17-85.4
					c0,0-4.3-8.9-9.1-12.3L597.8,201.3z"/>
				<path fill="#0F1B4E" stroke="#0F1B4E" stroke-width="0.9559" stroke-miterlimit="10" d="M632.3,350.3c-4.1-23-6.8-57-11-61.5
					c0,0,20.4-65.1,11.5-82.3c0,0-4.3-8.9-9.1-12.3l-25.9,7.1l-5.1,80.1c-0.1,2.1,0.2,4.3,0.9,6.3l22.7,61.9
					C620.9,349.8,627.6,349.9,632.3,350.3z"/>
				<path fill="#151CC8" d="M619.8,359.4l0.3,0.7l-16.8,23.2l36.3-8.4c0,0-3.6-6.8-5.1-15.7C630.4,358.8,623.9,359.6,619.8,359.4z"
					/>
			</g>
			<g>
				
					<line fill="none" stroke="#FFFFFF" stroke-width="0.6299" stroke-miterlimit="10" x1="613.7" y1="343.2" x2="632.1" y2="343.5"/>
				<line fill="none" stroke="#FFFFFF" stroke-width="0.6299" stroke-miterlimit="10" x1="547.9" y1="324.4" x2="565" y2="313.3"/>
			</g>
			<g>
				<path fill="none" stroke="#000000" stroke-width="0.7209" stroke-linecap="round" stroke-miterlimit="10" d="M595.8,160.9
					c0.1-1.1,0.9-4.4,1.7-4.4c0.8,0,1.3,3.4,1.2,4.5"/>
				<path fill="none" stroke="#000000" stroke-width="0.7209" stroke-linecap="round" stroke-miterlimit="10" d="M606.9,161.3
					c0.1-1.1,0.9-4.4,1.7-4.4c0.8,0,1.3,3.4,1.2,4.5"/>
				<path d="M613.9,164.1c-0.3,6.1-5.6,10.8-11.7,10.5c-6.1-0.3-10.8-5.6-10.5-11.7c0,0,5.7,1.3,10.5,1.5
					C608.1,164.6,613.9,164.1,613.9,164.1z"/>
				<path fill="#EA8363" d="M605,171.4c-2.6-2.3-6.1-0.9-7.4,1.8c1.4,0.7,2.9,1.2,4.6,1.3c1.6,0.1,3.2-0.2,4.6-0.7
					C606.3,172.9,605.7,172.1,605,171.4z"/>
			</g>
		</g>
		<g>
			<g>
				<g>
					<g>
						<g>
							<polygon fill="#FFB68F" points="164.5,189.9 163.8,193.4 137.3,195.8 135.3,190.7 							"/>
							<g>
								<path fill="#FFB68F" d="M123.1,163c2,1.9,17.2,31.4,17.2,31.4l25-2.8c0,0,1.7-13.1,1.9-18.9c0.1-4.2,0.8-9.9,0.8-9.9
									c41.9,5.8,48.1-21.5,48.7-50.9c-0.6-11.6,6-19.6,5-21.8c-1-2.2-5.9,4.5-5.9,4.5s4.7-7.6,3.9-7.9c-1.6-0.7-5.7,6.1-6.8,6.7
									c-1.1,0.6,4.9-6.8,3.2-7.5c-1.7-0.8-5.5,6.8-6.6,7.7c-1.1,0.9,4.2-6.9,2.5-8c-1.7-1-6.3,10.5-6.3,10.5
									c-0.1-0.1-0.5-4.1-2.6-5.7c-2.1-1.6,0,10.3,0,10.3s0.5,4.5,0.9,5.5c2.2,6.8-2.2,25.5-8.3,31.2c-5.3,5.1-20.7,8.6-33,7.9
									l-13.8,0.4l-2.4,0.5c0,0-12.8-0.2-17.5-1.6l-3.5-1.3c-11.1-5.5-27.3-12.5-29.5-19.5c-2.4-8,2-21.5,7.3-26.3
									c0.8-0.7,3.5-2.3,3.5-2.3s9-9.6,6.4-9.2c-2.6,0.4-5.7,5.3-6.5,4.5c-0.8-0.8,6.8-12.2,4.7-12.2c-2,0-6.4,6.8-6.9,5.5
									c-0.5-1.3,5-7.1,3.1-7.3c-1.9-0.2-5.3,6.5-6,5.5c-0.6-1.1,4.1-6.3,2.4-6.5c-0.8-0.1-5.6,6.2-5.6,6.2s4.1-5.6,2.1-4.2
									c-1.9,1.4-8.8,13.8-11.5,18.8c-8,14.7-10.5,36-8.2,41.8c3.5,9.1,16.7,14.1,33.6,20.7L123.1,163z"/>
								<path fill="#FFD324" stroke="#FFD324" stroke-width="0.9569" stroke-miterlimit="10" d="M154.9,144.1l-9.1-3.2
									c0,0-1.3-0.6-5.9,2.6L123.1,163c2,1.9,9.7,32.3,9.7,32.3l33.3-0.6c0,0,2.7-24.4,2.9-30.1
									C169.1,160.3,154.9,144.1,154.9,144.1z"/>
								<path d="M154.5,183.6c-7.7-10.4-14.4-21.6-20.9-32.8L123.1,163c2,1.9,9.7,32.3,9.7,32.3l30.6-0.6
									C160.4,191.1,157.4,187.4,154.5,183.6z"/>
								<g>
									<g>
										<path fill="#E6B03C" d="M140.6,128.5c-1.3,0.8-3,0.2-4.4-0.6c-4.1-2.3-7.5-6.1-8.8-10.6c-1.3-4.5-0.4-9.8,2.8-13.2
											c3.2-3.5,8.6-4.9,12.9-2.9c2.3,1,4.1,2.8,5.6,4.8c2,2.6,3.7,5.6,4.2,8.9s-0.1,6.8-2.2,9.4c-2.1,2.6-5.7,4.1-8.9,3.2"/>
									</g>
									<g>
										<path fill="#E6B03C" d="M134.1,100.7c-1.7-3.1-3.8-5.9-6.7-7.9c-2.9-1.9-6.6-2.9-9.9-2c-3.4,0.9-6.3,3.8-6.6,7.2
											c-0.2,2.3,0.5,4.7-0.5,6.8c-1.7,3.4-6.6,3.2-9.9,5.2c-2.4,1.4-4.5,4.2-7.1,3.6c-1.8-0.4-2.9-2.3-3.7-4.1
											c-1.3,4.9-0.3,10.4,2.7,14.4c3,4.1,7.9,6.7,12.9,7c2.8,0.1,5.8-0.6,7.4-2.8c1.4-1.9,1.6-4.7,3.6-6c2-1.2,4.8,0,7-0.9
											c1.5-0.6,2.5-2.1,2.9-3.6s0.6-3.2,0.9-4.8c-1.8,9.6,11.5-15.2,6.8-11.4"/>
									</g>
								</g>
								<g>
									<path fill="#FFB68F" d="M135.3,119.7c0,0.3-0.2,0.5-0.5,0.5c-1.2,0.1-3.9-0.1-4.1,3c-0.2,3.3,3.3,4.9,5,4.7
										c0.6-0.1,1.4,0.1,1.8,0.5c1.1,1.1,1.7,3.6,2.7,6.7c1.5,4.6,1.2,7.5,0.8,8.9c-0.2,0.7,0.1,1.5,0.6,1.9
										c4,3.4,18.1,14.7,13.6-1.4c0,0-2.3-16.6-2.2-16.7c1.4-1.5,6.9-2.4,2.8-14.1c-3.8-10.8-11.9-9.6-13.9-9.2
										C140.2,105.1,134.2,105.7,135.3,119.7z"/>
									<g>
										<path fill="#DB654A" d="M132.1,124.1c0,0,1.7-4,4.3,1.1"/>
										
											<ellipse transform="matrix(-7.386904e-002 -0.9973 0.9973 -7.386904e-002 34.9649 276.2996)" fill="#F09448" cx="145.8" cy="121.9" rx="2.8" ry="2.8"/>
										<path fill="#F09448" d="M157.2,119.6c-1.3-0.2-2.3-1.2-2.4-2.5c-0.1-1,0.4-2,1.2-2.5C156,114.6,157.3,117.6,157.2,119.6z"
											/>
										<path fill="#FFFFFF" d="M154.8,118.3l-4.1,2.3c0,0,2.1,1.4,3.2,0.5C154.9,120.2,154.8,118.3,154.8,118.3z"/>
										<path fill="#DB654A" d="M149.7,113l2.4,5.4l1-0.5c0.2-0.1,0.2-0.3,0-0.5L149.7,113z"/>
										<path d="M146.4,115.1c-0.3,0.5-0.2-1.3,0.4-1.7c0.6-0.4,1.4-0.4,1.7,0.1C148.5,113.5,147.2,113.8,146.4,115.1z"/>
										<path d="M153.8,111.9c0.6,0.1-0.7-1.1-1.5-1c-0.7,0.1-1.2,0.7-1.2,1.3C151.2,112.2,152.4,111.5,153.8,111.9z"/>
										<path fill="none" stroke="#000000" stroke-width="0.4114" stroke-miterlimit="10" d="M150.2,117.4
											c-0.3-0.6-1.1-1.7-1.4-1.6c-0.3,0.1,0.1,1.7,0.4,2.4"/>
										<path fill="none" stroke="#000000" stroke-width="0.4114" stroke-miterlimit="10" d="M154.1,115.3c-0.3-0.6-1-1.5-1.3-1.4
											c-0.3,0.1-0.1,1.5,0.2,2.1"/>
										<path fill="#DB654A" d="M153,127.9c0,0-3.1,1.2-5.8,1.2C149.7,132.3,154,132,153,127.9z"/>
									</g>
									<path fill="#E6B03C" stroke="#E6B03C" stroke-width="0.9735" stroke-miterlimit="10" d="M146.6,102.7
										c1.5,0.5,7.1-0.5,7.6,2.5c0.1,0.4,0.1,0.8,0.2,1.2c0.2,1.5-1.2,2.6-2.6,2.2l-8.5-2.8c0,0-2.4,13-6.6,14.7
										c-1,0.4-5.3-1.5-5.3-1.5S130.3,97.4,146.6,102.7z"/>
								</g>
							</g>
						</g>
					</g>
					<g>
						<g>
							<polygon fill="#FFB68F" points="113.7,368.7 107.7,355.1 118.8,346.8 122.6,366.8 							"/>
							<polygon fill="#DB654A" points="118.8,346.8 115.7,349.1 119.4,367.6 122.6,366.8 							"/>
						</g>
						<g>
							<g>
								<polygon fill="#FFB68F" points="169.2,339.8 184.4,325.1 174.9,319.4 164.3,337.9 								"/>
								<polygon fill="#DB654A" points="172.3,318.4 175.3,320.2 166.3,336.7 162.7,335.8 								"/>
								<g>
									<g>
										<path fill="#0F16C8" d="M171.2,339.9l0.2,17.1c0,0.8-0.9,1-1.4,0.3c-3.7-5.5-13.4-20.4-16-24.3c-0.3-0.5-0.1-1.1,0.4-1.2
											c2.7-0.6,10.1-2.3,11.9-3.1c0.3-0.1-2.3,6.5-0.7,7.7C166.9,337.5,171.3,339.4,171.2,339.9z"/>
										<path fill="none" stroke="#FFFFFF" stroke-width="0.3924" stroke-linecap="round" stroke-miterlimit="10" d="M171.5,341.4
											l-3.3-1.7c-1.2-0.5-2.6,0.3-2.7,1.6v0c-0.1,0.8,0.4,1.6,1.2,1.9l4.6,2.2"/>
									</g>
								</g>
							</g>
							<path fill="#0D194E" d="M183.7,334.2c-5.2-4.9-10.9-9.9-16.1-15.1c8.1-15.3,28.8-58.3,27.6-58.9c-7.9-5-21.3-14.4-30.3-20.8
								c-5.3-3.8-12.7-2.5-16.5,2.8c-6.7,9.3-16.2,23.3-19.9,32.4c-2.1,5.2-5,62.3-3.8,75.8c0.6,6.3-12.5,11.9-18.2,13.3
								c-2.2-10.4-15-77.2-8.5-95.7c6.4-14.1,26.7-60.4,35.5-73.8c2.8-0.3,32.8-1,32.8-1c3.8,2.8,37.1,32.6,55.3,48.9
								c6.8,6.1,8.3,16.2,3.5,24.1L183.7,334.2z"/>
							<path fill="none" stroke="#FFFFFF" stroke-width="0.6415" stroke-miterlimit="10" d="M189.4,323c-6.2-3.7-11.3-7.9-17.3-11.7
								"/>
							<g>
								
									<line fill="none" stroke="#FFFFFF" stroke-width="0.6415" stroke-miterlimit="10" x1="124" y1="344.7" x2="104.3" y2="354.2"/>
							</g>
						</g>
						<g>
							<g>
								<path fill="#0F16C8" d="M112.1,368.7l-7.4,15.5c-0.3,0.7,0.4,1.3,1.1,0.8c5.7-3.5,20.8-13,24.8-15.5
									c0.5-0.3,0.6-0.9,0.2-1.2c-2.2-1.7-8.2-6.3-9.5-7.8c-0.2-0.3-0.6,6.8-2.6,7.3C117,368.3,112.3,368.2,112.1,368.7z"/>
								<path fill="none" stroke="#FFFFFF" stroke-width="0.3924" stroke-linecap="round" stroke-miterlimit="10" d="M111.2,370
									l3.7-0.1c1.3,0,2.2,1.4,1.8,2.6l0,0c-0.3,0.8-1,1.3-1.9,1.3l-5.1,0.1"/>
							</g>
						</g>
					</g>
				</g>
			</g>
			<g>
				<path fill="none" stroke="#000000" stroke-width="0.7209" stroke-linecap="round" stroke-miterlimit="10" d="M144.4,167.6
					c0.1-1.1,0.9-4.4,1.7-4.4c0.8,0,1.3,3.4,1.2,4.5"/>
				<path fill="none" stroke="#000000" stroke-width="0.7209" stroke-linecap="round" stroke-miterlimit="10" d="M155.6,168
					c0.1-1.1,0.9-4.4,1.7-4.4c0.8,0,1.3,3.4,1.2,4.5"/>
				<path d="M162.5,170.8c-0.3,6.1-5.6,10.8-11.7,10.5c-6.1-0.3-10.8-5.6-10.5-11.7c0,0,5.7,1.3,10.5,1.5
					C156.8,171.3,162.5,170.8,162.5,170.8z"/>
				<path fill="#EA8363" d="M153.6,178.1c-2.6-2.3-6.1-0.9-7.4,1.8c1.4,0.7,2.9,1.2,4.6,1.3c1.6,0.1,3.2-0.2,4.6-0.7
					C155,179.6,154.4,178.8,153.6,178.1z"/>
			</g>
		</g>
	</g>
	<g>
		<g>
			<g>
				<g>
					<path fill="#05090D" d="M376.3,84.7c0,0,13.9,17.1,17.3,36.1l-7.2-0.2l-1.7-5.4l-1,6l-38.9-1.5c0,0-2.3-33,12.6-36.9
						C372.3,79,376.3,84.7,376.3,84.7z"/>
					<path fill="#080D2B" d="M377.7,125.1"/>
					<g>
						<g>
							<g>
								<path fill="#CC673B" d="M373.4,115.3c0,0,0.5,14.2,1.4,15c0.2,0.2,2.4,0.6,3.2,1c-2.3,4.4-12.4,14.7-12.4,14.7l-11.7-15.7
									l4.8-0.4l1.9-14.1L373.4,115.3z"/>
								<path fill="#AB4C33" d="M372.4,115.9h-10.5c0,0,1,5.7,6,5.4C372.8,120.9,372.4,115.9,372.4,115.9z"/>
							</g>
							<g>
								<path fill="#CC673B" d="M379,97.8c0,0,0.6,4.2,0.5,4.7c-0.2,0.5,3.3-1.5,3,1.8c-0.2,2-1.2,3.5-3.5,3.5
									c0,0-2.2,10.6-11.4,10.2c-11.1-0.4-12.4-8.1-12.4-8.1s-3.4-0.6-3.6-3.5c-0.1-2.6,2-2.4,2-2.4s-1.8-6.4-0.7-10.3
									c1.1-3.9,1-10.7,10.3-11.5c9.4-0.8,15.2,7.3,15.5,9.6C379.1,94.3,379,97.8,379,97.8z"/>
								<g>
									<path fill="#05090D" d="M362.4,81.8c5-1.1,9.4,0.9,9.4,0.9c10.1,3,8.2,19.1,8.2,19.1c-2.1,4.9-4,0.1-5.4-4.3
										c-0.5-1.7-2.2-2.9-3.9-2.6c-1.9,0.3-11.5-0.3-12.3-3.7c1.4,6.3-1,8.1-5,12.9C354.6,103.6,342.9,84.8,362.4,81.8z"/>
								</g>
								<g>
									<path fill="#060B0F" d="M363.6,100.9c0,0-0.5-0.8-1.4-0.6c-2.6,0.4-2.5,1.6-2.5,1.6L363.6,100.9z"/>
									<path fill="#060B0F" d="M369.3,100.8c0,0,0.6-0.8,1.8-0.9c1.8-0.1,2,0.5,2.5,0.9L369.3,100.8z"/>
									<path fill="#FFFFFF" d="M364.7,110.3c-0.1,0,0.8,2.1,3.2,1.9c2.2-0.2,2.5-2.6,2.5-2.6L364.7,110.3z"/>
									<path fill="#AB4C33" d="M368.3,108.5l-2.1,0.4c-0.4,0,0.8-2.9,0.8-2.9S368.7,108.5,368.3,108.5z"/>
									<path fill="#AB4C33" d="M379.6,104c0,0-0.2,2.3-0.4,2.8c-0.2,0.5,1.8-0.4,1.8-1.8C381,103.7,379.6,104,379.6,104z"/>
									<path fill="#AB4C33" d="M354.6,108.3l-0.9-3.1c0,0-1.2,0.3-0.9,1.4C353.3,108.3,354.6,108.3,354.6,108.3z"/>
									
										<ellipse transform="matrix(-0.9659 0.2588 -0.2588 -0.9659 741.1754 113.62)" fill="#060B0F" cx="363.1" cy="105.6" rx="0.7" ry="1.2"/>
									
										<ellipse transform="matrix(-0.9983 5.903401e-002 -5.903401e-002 -0.9983 746.0487 188.0183)" fill="#060B0F" cx="370.2" cy="105" rx="0.7" ry="1.2"/>
									<circle fill="#B34622" cx="374.3" cy="108.5" r="2.3"/>
									<circle fill="#B34622" cx="360.8" cy="110.4" r="2.3"/>
								</g>
							</g>
						</g>
					</g>
				</g>
				<g>
					<path fill="#CC673B" d="M368.1,260l-7.2,124.2c0,0-5.5,6.1-8.4,2.6c-1.5-1.8-6.1-3.8-6.8-4.8c1.6-0.9,5.4-3.4,5.4-3.4
						l-15.5-119.1L368.1,260z"/>
					<path fill="#AB4C33" d="M335.2,255.3l2,10.4c0,0,29.4,17.7,29.9,15.8l1-24.8L335.2,255.3z"/>
					<path fill="#151CC8" d="M350.9,378.1l-13.9,9.1c-0.6,0.4-0.2,1.2,0.7,1.2c0,0,25.1-0.1,25.1-0.5c0.2-2.3-0.9-7-0.9-7.4
						c0-1.2-3.6,2.3-6.1,3C354.5,383,351.3,377.8,350.9,378.1z"/>
				</g>
				<g>
					<path fill="#CC673B" d="M378.8,258.6l33,123.7c0,0,5.8,8,8.7,4.4c1.5-1.8,6.1-3.8,6.8-4.8c-1.6-0.9-5.4-3.4-5.4-3.4
						l-11.3-120.2L378.8,258.6z"/>
					<path fill="#AB4C33" d="M407.5,254.6l5,12.1c0,0-27.6,14.5-28,12.6l-5-18.6L407.5,254.6z"/>
					<path fill="#151CC8" d="M422.1,378.1l13.9,9.1c0.6,0.4,0.2,1.2-0.7,1.2c0,0-25-0.3-25.1-0.6c-0.4-3.6-0.9-8.6-0.1-11.8
						c0.1-0.3,4,4.4,6.5,5.1C418,380.5,421.7,377.8,422.1,378.1z"/>
				</g>
				<g>
					<path fill="#0F1B4E" d="M386.8,180.8c5.3,9.4,8.1,16.3,11.2,28.2c3.5,13.9,15.7,40.7,16.4,57c-4.4,1.1-33.5,1.2-36.2,1
						c-1.3-15.4-1-16.4-4.8-32.3c-0.6-2.4-4.2-1.9-4,0.6c0.1,2.2,0,5.2,2.1,32.7c-7.1,0.4-37.3-1-39.9-1.3
						c2.3-32.9-2.4-47.4,20.7-85.5C362.7,179.7,376.1,180.5,386.8,180.8z"/>
					<path opacity="0.21" d="M352.7,180.1l43.5,37.4c0,0-2-22-9.7-36.5L352.7,180.1z"/>
					<line fill="none" stroke="#FFFFFF" stroke-width="0.6649" stroke-miterlimit="10" x1="378.1" y1="260.6" x2="413.4" y2="260"/>
					<line fill="none" stroke="#FFFFFF" stroke-width="0.6649" stroke-miterlimit="10" x1="331.8" y1="259.6" x2="370.7" y2="260"/>
				</g>
				<polygon fill="#CC673B" points="350.5,175.1 352.1,181.2 386.6,181 386.5,175.2 				"/>
				<path fill="#CC673B" d="M357.8,130c0,0-12.5-6.1-15.5,18.3c-3,24.3,1.6,33.1,1.6,33.1s0.3,7.4,0.8,6.2
					C359,155.1,357.8,130,357.8,130z"/>
				<path fill="#AB4C33" d="M345,137.2c4.3,6.3,8.4,12.8,12.4,19.4c-1.4,7.1-9.3,22.3-13.5,31.9c-0.5,1.3,0.1-7.1,0.1-7.1
					s-4.6-8.8-1.6-33.1C342.9,143.5,343.9,139.9,345,137.2z"/>
				<g>
					<path fill="#F0D956" d="M358.8,128.6c-1.4,1.4-12.8,25.3-13.1,32.6c-0.3,8.1,2.3,14.5,2.3,14.5s37.6,0.6,38.4,0.9
						c2.4-21.7,5.8-36.9,0-40.4c0,0-10.5-8.8-12.2-9.8C374.3,126.5,363.1,145.4,358.8,128.6z"/>
				</g>
				<g>
					<path fill="#E6B243" stroke="#E6B243" stroke-width="1.009" stroke-miterlimit="10" d="M384.2,139.6
						C384.2,139.6,384.2,139.6,384.2,139.6c2.3-1,5,0.4,5.3,2.8c0.8,6.4-1,17.1-2.6,30.6c-0.2,1.9-1.8,3.3-3.7,3.3
						c-9.3-0.1-34.8,0.1-34.8,0.1s-0.6,0.7-0.9-2.5c-0.1-1-0.2-2.9,0.9-2.8c21.8,0.9,26.3-3.6,34.4-30.6
						C382.9,139.9,383.6,139.8,384.2,139.6z"/>
				</g>
				<path fill="#CC673B" d="M381.7,132c0,0,11.9-11.4,15.7,16.2c3.4,24.3-1.6,33.1-1.6,33.1s-0.3,7.4-0.8,6.2
					C380.7,155.1,381.7,132,381.7,132z"/>
				<path fill="#AB4C33" d="M394.6,138c0.1-0.2,0.2-0.3,0.4-0.5c-5-13.4-13.2-5.5-13.2-5.5s-0.3,7.8,2.2,20.7
					C387.5,147.8,391.1,142.9,394.6,138z"/>
				<path fill="#AB4C33" d="M387,165.5c1.9,6.6,4.5,14.1,8,22c0.5,1.3,0.8-6.2,0.8-6.2s4.7-8.2,2-30.6
					C394.2,155.7,390.6,160.6,387,165.5z"/>
				<ellipse cx="368.5" cy="110.6" rx="41.2" ry="45.3"/>
				<g>
					<circle fill="#FFD324" stroke="#FFD324" stroke-width="1.009" stroke-miterlimit="10" cx="369.1" cy="101.3" r="45.6"/>
					<g>
						<path fill="none" stroke="#000000" stroke-width="1.656" stroke-linecap="round" stroke-miterlimit="10" d="M353.3,97
							c0-2.5,1.5-10.2,3.3-10.2c1.8,0,3.3,7.7,3.3,10.2"/>
						<path fill="none" stroke="#000000" stroke-width="1.656" stroke-linecap="round" stroke-miterlimit="10" d="M379,96.5
							c0-2.5,1.5-10.2,3.3-10.2s3.3,7.7,3.3,10.2"/>
						<path d="M395.2,101.9c0,14.1-11.4,25.5-25.5,25.5c-14.1,0-25.5-11.4-25.5-25.5c0,0,13.1,2.3,24.4,2.2
							C382.2,103.9,395.2,101.9,395.2,101.9z"/>
						<path fill="#EA8363" d="M375.8,119.9c-6.3-4.9-14-1.4-16.8,5.2c3.3,1.5,6.9,2.4,10.7,2.4c3.7,0,7.2-0.8,10.4-2.2
							C379,123.2,377.6,121.3,375.8,119.9z"/>
					</g>
				</g>
				<g>
					<g>
						<path fill="#CC673B" d="M336.7,139.5c0,0,15.7,43.6,8.3,51.5c-7.4,7.9-14.6,1.4-15.9-4c-1.2-5.4-1.4-48.4-1.4-48.4
							L336.7,139.5z"/>
					</g>
					<path fill="#CC673B" d="M337,140.1l-2.5-5.8c0,0,4.7-3.1,5.4-4.5c0.7-1.3-4.5-0.4-6.3,1.3c0,0,9.2-5.8,6.7-5.8S332,128,332,128
						s8.9-3.1,7.8-4c-1.1-0.9-10.3,0.7-10.3,0.7s7.6-2.5,7.6-3.8c0-1.8-15.2,2-14.5,4c0.7,2,5.2,13.7,5.2,13.7L337,140.1z"/>
				</g>
				<g>
					<g>
						<path fill="#CC673B" d="M401.3,140.2c0,0-15.7,43.6-8.3,51.5c7.4,7.9,14.6,1.4,15.9-4c1.2-5.4,1.4-48.4,1.4-48.4L401.3,140.2z
							"/>
					</g>
					<path fill="#CC673B" d="M401.1,140.8l2.5-5.8c0,0-4.7-3.1-5.4-4.5c-0.7-1.3,4.5-0.4,6.3,1.3c0,0-9.2-5.8-6.7-5.8
						c2.5,0,8.3,2.7,8.3,2.7s-8.9-3.1-7.8-4c1.1-0.9,10.3,0.7,10.3,0.7s-7.6-2.5-7.6-3.8c0-1.8,15.2,2,14.5,4
						c-0.7,2-5.2,13.7-5.2,13.7L401.1,140.8z"/>
				</g>
			</g>
			<g>
				<path fill="none" stroke="#FFFFFF" stroke-width="0.397" stroke-miterlimit="10" d="M346.7,380.7l2.8,4.8l0.4-0.3
					c0.7-0.4,1-1.4,0.5-2.1l-2-3.4"/>
			</g>
			<g>
				<path fill="none" stroke="#FFFFFF" stroke-width="0.397" stroke-miterlimit="10" d="M426.6,380.8l-4.1,3.7l0,0
					c-0.9-0.5-1.1-1.8-0.3-2.5l2.5-2.2"/>
			</g>
		</g>
	</g>
</g>
</svg>
