<?xml version="1.0" standalone="no"?><!DOCTYPE svg PUBLIC "-//W3C//DTD SVG 1.1//EN" "http://www.w3.org/Graphics/SVG/1.1/DTD/svg11.dtd"><svg t="1628475823373" class="icon" viewBox="0 0 1024 1024" version="1.1" xmlns="http://www.w3.org/2000/svg" p-id="2009" xmlns:xlink="http://www.w3.org/1999/xlink" width="200" height="200"><defs><style type="text/css"></style></defs><path d="M512.001169 511.997178m-343.936739-343.936738a486.4 486.4 0 1 0 687.873477 687.873477 486.4 486.4 0 1 0-687.873477-687.873477Z" fill="#D0D0D0" p-id="2010"></path><path d="M729.731226 709.525478l-178.774696-178.774696 176.09561-176.095611a28.672 28.672 0 0 0 0.217223-40.620739 28.672 28.672 0 0 0-40.656943 0.18102l-176.09561 176.09561L335.688336 315.482587a28.672 28.672 0 0 0-40.620739 0.217223c-11.295607 11.295607-11.368014 29.469948-0.217224 40.620739l174.864679 174.864679-176.674872 176.674872c-11.295607 11.295607-11.368014 29.469948-0.217223 40.620739a28.672 28.672 0 0 0 40.620739-0.217223l176.674872-176.674872 178.774696 178.774696a28.672 28.672 0 0 0 40.620739-0.217223 28.672 28.672 0 0 0 0.217223-40.620739z" fill="#F56C60" p-id="2011"></path></svg>