<svg id="Layer_1" data-name="Layer 1" xmlns="http://www.w3.org/2000/svg" viewBox="0 0 1287 1000"><defs><style>.cls-1{fill:#5fc690;}</style></defs><title>Startups Office Day</title><path class="cls-1" d="M436.97583,446.59747c1.28942,0,1.95956-.707,3.03418-.707a2.544,2.544,0,0,1,2.3952,2.10755,2.51316,2.51316,0,0,1,1.59842-.95744,3.5528,3.5528,0,0,1,3.56273,3.57728c0,1.59413-28.61816,67.32654-28.66043,67.42048a3.60736,3.60736,0,0,1-3.68862,2.53781c-.57162,0-1.10292-.08-1.82942-.08-.71527,0-1.58886.142-3.86607.142-19.34156,0-39.11865-11.27367-44.9382-14.2768-38.74715,90.50827-32.47558,77.50278-38.73948,120.60629v8.10787c4.57424,20.03083.71837,58.64132,49.841,86.85677-.17412-2.74058-.27653-5.55653-.27653-8.46756,0-17.5984,10.29423-121.50417,130.10988-144.39265,0-.33473.02572-.65983.02572-.97646,0-.04461.00519-.049.00519-.08262,0-.39939-.732-4.9238-19.58674-130.00573q.00421-.52614.00407-1.053c0-2.906-.08678-5.82047-.08678-8.72669,0-57.82341,48.0733-111.96965,118.20463-111.96965,32.7422,0,94.22531,17.49874,115.67906,82.95805.77605,2.36783,30.1852,159.03213,30.62846,162.04054,16.05817,8.65085,10.11279,5.69629,67.58733,47.48449,25.09747-64.95894,63.33234-114.50426,77.75635-133.00144-.60015-1.108-16.58535-27.0344-16.58535-55.29705,0-10.16273,4.376-13.87587,7.15559-13.87587,6.53745,0,10.62867,16.4547,16.3654,25.96471,5.10261-3.769,12.84786-12.15849,21.87737-21.36882a158.16709,158.16709,0,0,0-17.90855-28.43608c-28.89252,13.18328-64.26344,31.672-67.45,31.672-2.766,0-50.5358-20.83859-50.5358-77.70921,0-24.47917,9.19865-39.7416,9.19865-41.90643,0-4.21163-53.43608-95.90453-147.08534-105.38007-18.46294,73.93948-73.2859,90.55433-92.6348,90.55433-19.55525,0-18.48361-1.89907-47.65918-44.25776a4.173,4.173,0,0,1-.80136-2.36026,3.673,3.673,0,0,1,3.58907-3.51679,3.31161,3.31161,0,0,1,.7186.08821,5.03137,5.03137,0,0,1,3.569-2.009,41.78611,41.78611,0,0,0,5.16728.39177c18.5278,0,37.47507-16.91809,46.42694-30.52668-22.16525,4.1111-155.1608,36.80994-184.42361,218.82907C397.61937,433.80986,418.881,446.59747,436.97583,446.59747Zm349.6544,51.22765a3.951,3.951,0,0,1-.0567-.66258c0-2.0764,2.13757-11.00378,14.69189-11.69454,5.3026.66563,5.20756.72011,5.417.72011.041,0,.09367-.00209.20078-.00209,4.81789,0,7.52181-11.48124,15.04694-11.48124,3.60747,0,6.21665,2.35935,8.252,2.35935,4.6637,0,7.69662-11.5525,14.48827-11.5525a7.884,7.884,0,0,1,4.97168,2.27183,3.73977,3.73977,0,0,1,2.67425,3.56078c0,3.28906-3.59228,3.5814-5.19826,4.04832a3.79717,3.79717,0,0,0-1.09078-.178c-3.07284,0-6.01864,9.47862-16.2965,9.47862-.88006,0-1.40735-.06942-1.56795-.06942-.158,0-.31777.02108-.47614.02108-.0972,0-.30993-.01764-.71207-.01764-9.57375,0-7.626,10.779-22.25477,10.779-.14594,0-.19669-.00115-.41262-.00115-9.83453,0-7.12706.8509-11.96208,7.0219a3.64281,3.64281,0,0,1-2.87037,1.49813,3.73347,3.73347,0,0,1-3.65379-3.71543A4.16958,4.16958,0,0,1,786.63023,497.82512ZM722.27361,314.4105c2.7132,0,7.43773,1.149,7.43773,6.39117,0,11.65216-17.212,16.21826-23.06386,16.56513a4.07434,4.07434,0,0,1-3.73439-4.06115C702.91309,330.67435,711.62683,314.4105,722.27361,314.4105ZM508.7988,298.98037h.00014c9.0924,0,11.52472,14.0005,14.24027,20.28285a2.74711,2.74711,0,0,1,.24514,1.09811,4.07215,4.07215,0,0,1-1.28105,2.53163,2.5179,2.5179,0,0,1-1.95555,1.00326c-1.39182,0-4.59628-2.114-4.82046-2.262-10.86031-7.169-11.22058-8.26985-13.18133-14.39136C502.56863,298.9806,507.96165,298.98037,508.7988,298.98037ZM447.00305,559.86318c-2.68554,0-2.13207-4.11316-5.71943-4.11316-5.69595,0-9.21159,7.06475-17.90586,7.06475-6.43023,0-8.80264-5.85621-13.015-5.85621-3.3862,0-8.92761,5.37646-14.4885,5.37646-5.173,0-8.50331-4.18785-12.93378-4.18785-3.823,0-3.46066,4.31752-5.9089,4.31752a2.47505,2.47505,0,0,1-2.36393-2.42578c0-1.692,2.64917-6.56759,9.39946-6.56759l.1078.00046c6.91926.58331,7.41906,3.79768,11.75078,3.79768,5.05376,0,8.54616-5.25022,14.39068-5.25022,6.524,0,8.94353,5.82665,13.16712,5.82665,6.54479,0,10.36893-7.04527,17.53883-7.04527,4.05835,0,8.351,2.56027,8.351,6.53322A2.38156,2.38156,0,0,1,447.00305,559.86318Zm-8.417-169.45211c0-.159.00864-.257.00864-.2823a6.04983,6.04983,0,0,1,6.33659-6.41041c6.19351,0,10.53108,3.27921,16.45149,8.08015a3.67709,3.67709,0,0,1,2.11385,1.71532c1.89,1.53139,3.21758,2.34548,3.21758,3.70626a1.94688,1.94688,0,0,1-.23168.9036c-1.80405,3.484-1.67283,3.0194-7.47777,3.45814C439.46682,399.82042,438.58606,392.01522,438.58606,390.41107Z"/><path class="cls-1" d="M380.68286,720.28553c.00023-.72306.00046-1.4491.00046-2.158,0-4.5858-.01444-6.94881-.02749-8.858-.071,1.771-.11845,3.54978-.11845,5.34323C380.53738,716.53345,380.59259,718.42106,380.68286,720.28553Z"/><path class="cls-1" d="M435.2266,452.83606c.1503-.3487.30013-.69557.45043-1.04427-.25328-.03185-.49877-.07057-.75033-.104A6.20341,6.20341,0,0,1,435.2266,452.83606Z"/><g id="BHwvIW.tif"><path d="M712.006,575.47663c-7.10295,46.50352-64.33927,55.43051-83.28226,55.43051-51.54263,0-56.58883-29.85155-59.61967-40.75269-16.65859,2.455-54.40144,8.91306-56.1608,8.91306-3.12026,0-2.67308-.00449-6.453-24.83384-62.37637,9.20019-125.95285,65.0014-125.95285,140.37915,0,35.3265,15.86712,61.3247,25.08062,70.86006,38.66784,40.0178,31.22566,44.22762,112.95168,44.22762,21.77669,0,49.88439-.2989,86.88241-.2989.695,0,1.39288-.06947,2.13353-.10655.17057-.72577.33813-.18468.33813-7.1917,0-109.98213-136.70754-177.95129-136.70754-180.70413a2.42688,2.42688,0,0,1,2.44644-2.46552c14.4029,0,108.50129,66.70491,137.30517,147.27638,1.85924.23731,18.04688.26187,18.14121.26187,7.162,0,42.37189-.28567,47.38086-.28567,5.49951,0,6.7787,1.385,6.7787,3.02665,0,2.1269-28.01688,45.19633-30.86515,45.19633-.57846,0-2.39561-.20908-5.56132-.20908-7.12592,0-9.34225.89865-12.6073.89865-307.15169,0-329.34768-1.64685-329.34768-4.65176,0-.50766.63353-1.05409.63353-1.63788,0-4.53773,34.77945-38.28828,34.77945-42.011,0-.10576-.00375-.13485-.00375-.20458l-.00075-.04724c0-.31673.11953-2.04436,3.35917-2.04436.094,0,50.72789.39828,52.09737.39828.48786,0,.98382-.05764,1.74021-.1031-3.69824-6.31305-22.08377-30.41038-22.08377-71.33245,0-17.59828,10.29424-121.50416,130.10982-144.39268,0-.33463.02573-.65991.02573-.97651,0-.04462.00519-.049.00519-.08263,0-.39935-.732-4.92319-19.58678-130.00566q.00425-.5262.0041-1.05282c0-2.90625-.08677-5.82059-.08677-8.72683,0-57.82337,48.0733-111.96954,118.20461-111.96954,32.74219,0,94.22533,17.49869,115.67908,82.958.776,2.3678,30.18517,159.032,30.62845,162.04046,16.05814,8.651,10.1128,5.69637,67.58729,47.48462,25.09747-64.95895,63.33236-114.50429,77.75636-133.00155-.60011-1.10784-16.58531-27.03426-16.58531-55.29688,0-10.16277,4.376-13.87591,7.15556-13.87591,6.53745,0,10.62871,16.45462,16.36542,25.96459,10.09675-7.45789,44.32242-47.55066,53.48173-47.55066,3.7343,0,5.41059,3.21412,5.41059,6.22357,0,7.53271-10.13907,19.8028-12.61108,23.86017,5.24028-5.10065,16.86-18.02019,24.16185-18.02019,1.52661,0,4.21852.81124,4.21852,5.41338,0,6.69117-7.84374,16.80613-17.68439,31.40584l.3584.42084c8.775-5.98032,18.39648-14.88666,25.18064-14.88666a4.58793,4.58793,0,0,1,4.66964,4.92523c0,9.35049-22.53293,28.42126-32.7543,50.00607-8.66521,18.29847-9.34082,12.82248-9.34082,16.70259,0,2.74406,3.28239,10.10871,3.28261,77.241,0,177.39084-42.04022,213.85579-53.8273,213.85579-2.361,0-2.75655-2.57768-2.75655-3.02133,0-8.76531,51.54533,8.60218,51.54533-216.52584,0-16.5557-1.12587-47.1807-1.24-48.24535-12.77994-2.80078-14.78341-2.72062-14.78341-5.168a2.35778,2.35778,0,0,1,2.61439-2.38355c1.38651,0,9.36091,1.993,12.07818,2.31479-.28515-6.06448-1.31916-11.92395-1.61966-17.86081-2.99164-.95877-41.8348-11.54569-42.67132-11.54569-1.74234,0-1.38764.16818-11.416,13.376,8.34977,4.05783,15.20886,4.34452,15.20886,7.53069a2.3765,2.3765,0,0,1-2.46131,2.39467c-1.62637,0-10.52826-3.91508-15.99984-5.51257-25.976,35.58347-47.67573,73.475-63.599,114.74791,11.17583,10.46633,33.34722,30.75525,33.34722,61.59823,0,24.59068-16.45285,41.24162-30.34265,41.24162-20.48884,0-21.0883-33.54565-21.0883-40.3857,0-24.5109,7.44354-46.24468,12.00391-60.68878-1.346-1.14849-62.69744-47.18247-66.19-47.18247C749.51991,566.81213,714.07051,574.88813,712.006,575.47663ZM670.591,421.58452c-2.24093.36614-6.6549,1.80049-13.59911,1.80049-28.71085,0-39.8914-23.70813-64.31518-23.70813-4.47487,0-6.35088,1.19472-15.2508,1.19472-22.847,0-33.59726-16.43079-38.06794-21.96245-29.38719,26.47793-29.7641,69.0181-29.7641,78.85282,0,31.25486,9.456,57.92474,13.05161,67.74336,1.03753,2.83322,2.55668,2.88707,7.3083,2.88707l.57859-.00008c9.89071,0,23.163-3.17758,25.20471-3.17758.30615,0,.539-.096.756-.096,1.46061,0,2.19872,4.34839,19.69473,71.59147,1.44068,5.53713,19.57349,12.13114,41.40255,12.13114,25.56043,0,62.31683-8.99291,87.35381-34.2796C700.57082,558.92939,670.61336,421.67889,670.591,421.58452Zm285.82185-29.8886a3.66481,3.66481,0,0,0-.40659-1.64995c-16.95868,9.28591-45.24047,47.42528-54.12488,47.42528-5.97468,0-9.57927-18.668-15.70046-25.47346a13.5109,13.5109,0,0,0-1.81395,7.38843c0,24.66508,13.354,54.17491,17.78735,55.35745,39.36445,10.49907,39.22062,10.83345,40.29621,10.83345.07318,0,.152-.00155.24928-.00155,2.59305,0,4.25215-2.5594,4.965-3.93469,22.62182-43.63962,32.05044-42.79856,37.04837-57.07787-9.47094,2.20077-24.02007,18.12241-29.18918,18.12241a3.58878,3.58878,0,0,1-3.5796-3.39568c0-5.3927,20.22614-30.58327,20.22614-35.87586a1.05293,1.05293,0,0,0-.35151-.75631C959.84645,407.357,946.59213,428.68,939.42786,428.68a3.0978,3.0978,0,0,1-3.13792-3.18832C936.28994,420.24059,956.41285,399.23919,956.41285,391.69592ZM820.23845,617.86985c-3.0376,8.40447-11.06759,33.24433-11.06759,56.892,0,34.07421,13.22708,35.14906,15.52208,35.14906.15454,0,.25951-.00487.30754-.00487,8.19638,0,25.333-10.64268,25.333-36.47174C850.33352,641.30786,820.83,618.114,820.23845,617.86985ZM700.10407,479.24056a42.3926,42.3926,0,0,1-1.07368-5.0559,2.52491,2.52491,0,0,1,2.52965-2.53184c2.31493,0,2.53316,2.48657,3.4835,5.27194,6.39167-2.80583,7.31428-6.89394,7.31428-11.41092,0-1.73356-9.96612-73.90714-25.92411-73.90714-11.20523,0-12.08045,6.17959-12.08045,14.61347,0,1.56143.03,3.20013.03,4.89119,0,9.95275,14.76734,70.63106,14.79656,70.72508C692.82446,480.97039,696.31047,480.142,700.10407,479.24056Z"/><path d="M411.45058,515.69672c-.24356,0-.51046-.00607-.80437-.016-57.87761-5.09293-113.50351-62.6518-113.50351-95.91984a6.265,6.265,0,0,1,3.32568-5.55594c67.19684-37.25029,70.40455-39.1885,71.31732-39.1885.106,0,.18108.02615.32185.02615a2.37889,2.37889,0,0,1,2.44261,2.29834c0,1.27069-1.60722,2.70043-1.60722,7.84612,0,30.4522,35.86952,61.41041,64.03286,61.41041,1.2894,0,1.95961-.70692,3.03422-.70692a2.5312,2.5312,0,0,1,2.43279,2.44167C442.44281,449.37361,415.26679,515.69672,411.45058,515.69672ZM367.47067,383.06534c-.09387.04541-65.12071,34.95189-65.12071,37.09736,0,27.25948,41.82934,79.24616,107.94935,90.4682,8.5138-19.7395,16.9075-39.20059,25.37778-58.83919C379.524,444.7485,369.20891,397.15112,367.47067,383.06534Z"/><path d="M795.47818,332.8024a103.62315,103.62315,0,0,1,9.53006-41.35383c.91089-2.14817,84.81319-23.7003,84.90728-23.7003a2.35787,2.35787,0,0,1,2.40686,2.513c0,1.48049-3.93395,12.67444-3.93395,28.76064,0,54.89852,35.76068,66.23161,35.76068,70.03977,0,1.5712-.93913,2.4042-2.27423,3.00359-23.327,10.47216-81.97385,37.31733-82.77809,37.31733C838.19724,409.38262,799.75159,391.2369,795.47818,332.8024Zm5.27938.06937a84.54738,84.54738,0,0,0,38.50044,70.95c25.64989-11.60513,51.17815-23.15523,76.99795-34.83721-1.08919-.812-32.99983-19.26507-32.99983-69.97655,0-11.75325,1.88612-19.61548,2.78211-24.98934-25.94071,6.92548-51.49454,13.7477-76.89374,20.5286A94.83759,94.83759,0,0,0,800.75756,332.87177Z"/><path d="M560.30581,273.24251c-8.715-.187-11.72682-1.64348-13.627-1.64348-.915,0-1.07078.20477-1.781.20477-2.94268,0-31.50176-39.64831-31.50176-40.27215,0-1.949,2.55819-3.63016,4.15292-3.63016a41.79112,41.79112,0,0,0,5.16731.39174c7.49966,0,14.38258-2.6502,20.95381-6.42093,34.87892-20.01437,36.6-56.97113,41.41957-56.97113.09392,0,62.22067,17.365,62.22067,20.7146C647.31033,189.169,619.6036,272.64766,560.30581,273.24251Zm26.14905-102.77459c-18.38331,62.83093-63.21953,62.72775-65.53391,63.25786,1.02311,1.43405,23.91439,32.00565,25.05529,32.22673,6.09084,1.18029,9.5281,2.05962,15.0511,2.05962,48.48126,0,78.5339-69.06425,80.40953-80.84177Z"/><path d="M714.7194,769.957c2.26838,2.42463,19.05337,14.1496,28.78847,14.1496,2.726,0,3.77543-.92281,4.99846-.92281a2.50508,2.50508,0,0,1,2.53663,2.53995c0,3.23649-6.87336,3.49871-7.67972,3.49871-25.53853,0-80.868-55.91024-80.868-85.03228,0-4.99272,1.6634-12.512,11.7151-12.512,14.10081,0,32.81211,15.41241,34.58442,16.72544,3.46052-3.26149,22.34913-22.26033,39.19571-22.26033,2.13831,0,14.06591.47557,14.06591,15.39037C762.0564,714.91776,749.11661,747.07191,714.7194,769.957Zm-5.53851-54.84245c-3.59173-2.48308-22.34014-18.38771-34.77072-18.38771-4.37636,0-6.89022,1.81808-6.89022,7.4375,0,20.5079,32.53749,55.21152,42.87948,62.40092,29.03664-18.74009,46.54927-48.73965,46.54927-64.799,0-10.38517-6.84092-10.47566-9.46006-10.47566C734.30478,691.29053,718.174,706.56664,709.18089,715.11452Z"/><path d="M384.06712,553.47146l.10776.00042c6.91925.58331,7.41908,3.79764,11.75079,3.79764,5.05375,0,8.54615-5.25032,14.39066-5.25032,6.52409,0,8.94359,5.82656,13.16712,5.82656,6.54479,0,10.369-7.04507,17.53881-7.04507,4.0584,0,8.351,2.56027,8.351,6.53319a2.38142,2.38142,0,0,1-2.37021,2.52923c-2.68555,0-2.13206-4.11305-5.71947-4.11305-5.69588,0-9.21163,7.06461-17.90585,7.06461-6.43018,0-8.80271-5.85611-13.015-5.85611-3.38613,0-8.92767,5.37658-14.48844,5.37658-5.173,0-8.50334-4.188-12.93391-4.188-3.82291,0-3.46062,4.31746-5.90887,4.31746a2.475,2.475,0,0,1-2.36385-2.42571C374.66767,558.34687,377.31672,553.47146,384.06712,553.47146Z"/><path d="M801.26542,485.46808c5.30177.66551,5.20759.72,5.41693.72.041,0,.09369-.00209.20087-.00209,4.81788,0,7.52184-11.48132,15.04693-11.48132,3.60746,0,6.21666,2.35953,8.252,2.35953,4.66373,0,7.69662-11.55258,14.4883-11.55258,2.91475,0,6.36884,2.91835,6.36884,4.62984a2.36662,2.36662,0,0,1-2.29877,2.33876c-1.793,0-2.89239-1.89126-4.17581-1.89126-3.197,0-6.60743,11.40581-14.1495,11.40581-3.79556,0-6.16415-2.32982-8.45721-2.32982-4.28946,0-7.07081,11.50941-14.83117,11.50941-2.00129,0-3.69067-.726-6.48322-.726a10.9401,10.9401,0,0,0-3.071.41252c-8.39541,2.43187-5.16935,8.93371-8.7633,8.93371-.352,0-2.23585-.16355-2.23585-2.63208C786.57349,495.08617,788.71107,486.15885,801.26542,485.46808Z"/><path d="M706.64748,337.36683a4.0743,4.0743,0,0,1-3.73441-4.06116c0-2.63122,8.71376-18.89524,19.36055-18.89524,2.71317,0,7.43768,1.149,7.43768,6.39113C729.7113,332.45382,712.49934,337.02,706.64748,337.36683Zm1.68517-5.519a30.21788,30.21788,0,0,0,9.068-2.69761c5.63557-2.34521,7.17772-7.32,7.17772-8.27774,0-.80428-.60689-1.34388-2.50227-1.34388C716.64655,319.52862,710.54827,328.47375,708.33265,331.84785Z"/><path d="M459.00473,401.5818c-19.53787-1.76134-20.41867-9.56662-20.41867-11.17078,0-.159.00865-.257.00865-.28229a6.04989,6.04989,0,0,1,6.33657-6.41044c7.49245,0,12.2617,4.79254,20.41288,11.2815a3.06474,3.06474,0,0,1,1.37,2.22032,1.94625,1.94625,0,0,1-.23171.90353C464.67846,401.60781,464.80967,401.143,459.00473,401.5818Zm-.44894-4.89275c.102,0,.22868-.13882.61629-.37669-1.7952-1.3294-8.41968-7.35835-13.79495-7.35835-.50271,0-1.1778.20464-1.29708.48562a1.93788,1.93788,0,0,0-.13145.7399C443.9486,394.20694,456.14047,396.68905,458.55579,396.68905Z"/><path d="M502.04593,307.243c.52274-8.26273,5.91633-8.26262,6.753-8.26262,9.09241,0,11.52468,14.00065,14.24027,20.28295a2.74737,2.74737,0,0,1,.24515,1.09791,4.07322,4.07322,0,0,1-1.28107,2.5319,2.51819,2.51819,0,0,1-1.95555,1.00312c-1.39181,0-4.59627-2.114-4.82047-2.262C504.367,314.46533,504.00672,313.36427,502.04593,307.243Zm14.56,8.8442c-2.77381-10.88406-7.373-11.91273-7.66078-11.91273-1.51975,0-1.64252,2.18622-1.64252,2.46943C507.30267,311.16166,515.83748,315.63026,516.606,316.08716Z"/><path d="M592.97279,506.57225c0-12.67832,8.871-12.84148,9.5356-12.84148l.03517.00011c1.74486,0,11.861,2.01209,11.861,15.05838,0,3.65059-2.32753,11.11965-9.56837,11.11965C595.53349,519.90891,592.97279,508.80233,592.97279,506.57225Zm16.36734,2.29224c-.30266-8.76533-5.7286-9.95768-6.75183-9.95768-3.10276,0-4.54159,3.61414-4.54159,6.6641,0,4.391,3.29921,9.22067,6.77083,9.22067C608.63884,514.79158,609.13845,509.72741,609.34013,508.86449Z"/><path d="M563.15933,423.87653a2.51717,2.51717,0,0,1,2.40267,2.66495q0,.12636-.00992.25673a3.82223,3.82223,0,0,1-.55931,1.17628c-12.64823,13.88475-12.62788,14.04508-14.03209,14.04508l-.10216-.00008a2.55461,2.55461,0,0,1-2.4245-2.40376c0-.57724.20923-1.33471,1.571-2.82368C561.306,424.43517,561.6014,423.87653,563.15933,423.87653Z"/><path d="M616.35257,425.89293q-.0459,0-.0923-.00108c-17.381-3.77617-18.14949-4.21366-18.14949-6.38833A2.49623,2.49623,0,0,1,600.652,417.01a7.32934,7.32934,0,0,1,1.67725.25823c15.08936,3.61509,16.84688,3.52514,16.84688,6.10194A2.6157,2.6157,0,0,1,616.35257,425.89293Z"/><path d="M565.56377,456.46076a2.43822,2.43822,0,0,1,2.5155-2.60448,2.40625,2.40625,0,0,1,2.42,1.81777c.02969.09392,2.981,9.544,2.981,10.67525a2.47525,2.47525,0,0,1-2.50056,2.46616,2.681,2.681,0,0,1-2.41961-1.86307C568.521,466.85849,565.56377,457.64,565.56377,456.46076Z"/><path d="M572.14409,479.30859a2.58465,2.58465,0,0,1-2.71741,2.57711,6.75607,6.75607,0,0,1-1.40942-.52775c-7.52792-4.56084-8.467-5.01485-8.467-6.74658a2.5238,2.5238,0,0,1,2.47613-2.54218,2.44881,2.44881,0,0,1,1.225.33443c8.45746,4.85267,8.89858,5.75459,8.89858,6.5866,0,.0969-.006.19285-.006.294Z"/><path d="M603.23328,447.51476a2.53677,2.53677,0,0,1,2.50936-2.706,2.51027,2.51027,0,0,1,2.20063,1.35716,70.5086,70.5086,0,0,1,2.69189,9.68424,2.47617,2.47617,0,0,1-2.47078,2.59334,2.57131,2.57131,0,0,1-2.21258-1.376A92.33134,92.33134,0,0,1,603.23328,447.51476Z"/><path d="M618.2221,467.94232a2.68463,2.68463,0,0,1-2.83558-2.49118c0-.66092.17192-1.6833,4.75956-7.18182a2.22237,2.22237,0,0,1,1.73716-.81244,2.62505,2.62505,0,0,1,2.60805,2.49923,2.489,2.489,0,0,1-.4313,1.373C619.43291,468.37559,619.179,467.451,618.2221,467.94232Z"/><path d="M694.89511,444.44939c8.38094.71607,8.85672,15.43518,8.85672,16.6389a2.69633,2.69633,0,0,1-2.56054,2.91891c-4.69129,0-1.07071-8.73981-5.69334-14.01482-1.19576.81473-1.96233,1.44877-3.0275,1.44877-1.13663,0-1.98848-.86867-2.26587-2.51642-.36846-2.18876-3.82824-32.01065-3.82824-32.59884a2.62253,2.62253,0,0,1,2.54985-2.8655C693.23983,413.46039,691.17726,421.55888,694.89511,444.44939Z"/><path d="M358.66548,435.88412c-1.9529,0-3.94071-.38971-6.37484-.63384,11.38048,10.15438,22.67909,15.29838,22.67909,18.08587a4.83734,4.83734,0,0,1-1.304,2.69215c7.2697,1.27015,10.10673,1.15869,10.10673,4.07413a3.91579,3.91579,0,0,1-.95742,2.39034c10.14205,7.01789,16.94523,7.79318,17.43388,9.73079,1.18483,4.69849,2.05908,5.00156,2.05908,5.83932a2.26773,2.26773,0,0,1-2.35344,1.8916c-4.43843,0-4.67117-4.89105-4.73184-5.18909-14.12066-6.08319-16.68183-8.37693-17.90507-12.94723-2.55114-.54354-12.39587-2.04148-12.39587-6.41045a6.66877,6.66877,0,0,1,1.09663-3.21189c-16.27859-11.81618-19.84711-15.00122-22.4713-20.60682-.86953-1.85743-8.94364-5.50834-8.94364-8.72354a2.181,2.181,0,0,1,2.08739-2.12286c1.661,0,2.32158,1.96421,6.262,4.41445.75454-1.08636,3.15543-6.08678,10.99262-6.08678,5.34178,0,11.57192,3.24658,11.57192,10.23957A6.45782,6.45782,0,0,1,358.66548,435.88412ZM347.83,427.65217c5.50057,2.76893,9.00416,3.32952,10.11134,3.32952,1.66,0,2.59075-.4407,2.59075-1.77835,0-2.84957-2.52032-5.17067-6.66094-5.17067C351.8575,424.03267,347.86022,424.9289,347.83,427.65217Z"/><path d="M860.51684,345.51025a4.73823,4.73823,0,0,1-2.62122-.90565c-1.80307,2.26488-3.20541,4.87749-6.24581,4.87749a6.19665,6.19665,0,0,1-1.22421-.12891c-1.08707,1.54361-2.31609,3.69783-4.31789,3.69783-1.85818,0-2.73629-1.81219-3.6265-3.18874-3.31052,3.75122-6.70785,7.29863-12.18477,7.29863q-.09607,0-.193-.00146c-1.7579,3.47966-2.23663,5.05718-3.84771,5.05718a2.15826,2.15826,0,0,1-2.18219-2.24685c0-.95969.31976-1.3029,1.4172-3.89084-.447-1.23932-4.20908-2.93146-4.20908-10.03015,0-6.6655,2.68885-13.43725,7.51154-13.43725,5.092,0,5.326,6.51474,5.326,8.23909,0,.17449-.0024.29993-.0024.3646a38.25615,38.25615,0,0,1-1.83341,10.45911c4.4231-.378,9.2199-10.73586,12.362-10.73586,1.4423,0,2.22825,1.44983,2.89872,2.59525a7.9999,7.9999,0,0,1,2.2722-.69305,10.22628,10.22628,0,0,1,2.63356.78623c3.10877-4.89057,3.54719-6.487,5.37021-6.487,1.66652,0,2.857,2.05263,3.25749,2.618,5.31731-6.01015,5.24411-6.51025,6.676-6.51025a2.42947,2.42947,0,0,1,2.38733,2.38494,4.89793,4.89793,0,0,1-1.26757,2.684C863.46125,344.42512,862.517,345.51025,860.51684,345.51025Zm-31.39762-4.16983a22.14669,22.14669,0,0,0-.28562-3.55851c-1.67955,1.63605-2.57863,4.73049-2.57863,7.56191a8.10448,8.10448,0,0,0,1.36234,4.96891A31.3156,31.3156,0,0,0,829.11922,341.34042Z"/><path d="M569.9367,232.32435c12.03384-10.19963,12.18338-10.71747,14.146-10.71747a4.13612,4.13612,0,0,1,1.61743.35155c2.8918-5.71678,3.28557-7.52165,5.19031-7.52165a3.13873,3.13873,0,0,1,2.007.89854,4.71721,4.71721,0,0,1,.66582,1.07486c10.58-10.92639,3.57576-9.04189,11.62739-19.79411a1.95421,1.95421,0,0,1,1.61046-.8385,2.49571,2.49571,0,0,1,2.50268,2.41257c0,2.33494-2.8,3.54372-3.54938,7.26491-1.5863,7.8774-8.99449,16.376-12.55969,16.376a4.30879,4.30879,0,0,1-1.5159-.285c-2.90876,4.59989-3.8594,6.6414-6.24513,6.6414a9.2,9.2,0,0,1-2.46158-.44631c-6.00374,5.11919-7.54632,6.16867-12.37577,10.24822-2.70585,2.28575-5.09888,9.23577-9.41526,9.23577-3.03624,0-3.80533-3.24-3.80533-3.84523a3.96829,3.96829,0,0,1,.75033-2.14558,5.81807,5.81807,0,0,1-1.62746-3.877c0-3.47452,4.371-8.56811,8.60405-8.56811C567.70893,228.78925,568.96858,231.01331,569.9367,232.32435Zm-8.16054,4.56889c2.22431-.34888,3.07756-.73421,3.07756-1.73357a3.98108,3.98108,0,0,0-.27648-1.25762A5.40224,5.40224,0,0,0,561.77616,236.89324Z"/></g><path class="cls-1" d="M747.48867,691.29066c-13.18385,0-29.31465,15.27594-38.30779,23.82393-3.59171-2.48307-22.34011-18.38768-34.77071-18.38768-4.37635,0-6.89022,1.818-6.89022,7.43728,0,20.50805,32.53749,55.21158,42.8795,62.401a121.285,121.285,0,0,0,25.5822-22.25591c15.26524-17.80944,20.96708-33.47353,20.96708-42.54312C756.94873,691.38093,750.10782,691.29066,747.48867,691.29066Z"/></svg>