<?xml version="1.0" standalone="no"?><!DOCTYPE svg PUBLIC "-//W3C//DTD SVG 1.1//EN" "http://www.w3.org/Graphics/SVG/1.1/DTD/svg11.dtd"><svg t="1626259430006" class="icon" viewBox="0 0 1024 1024" version="1.1" xmlns="http://www.w3.org/2000/svg" p-id="3505" xmlns:xlink="http://www.w3.org/1999/xlink" width="200" height="200"><defs><style type="text/css"></style></defs><path d="M140.544 814.976c-43.9552-0.0768-79.5136-35.6352-79.616-79.5648l0 0L60.928 219.8784c0.1024-43.9552 35.6608-79.5136 79.616-79.616l0 0 665.3696 0 149.2736 147.2768-18.6624 18.8928 18.6624-18.8928 7.8848 7.7824 0 440.064c-0.128 43.9552-35.6608 79.488-79.5904 79.5648l0 0L140.544 814.9504 140.544 814.976zM113.9968 219.8784l0 515.5328c0.0256 14.3872 12.1088 26.496 26.5472 26.496l0 0 742.9376 0c14.4128 0 26.496-12.1344 26.5216-26.496l0 0L910.0032 317.5168l-125.8496-124.1856L140.544 193.3312C126.1056 193.3568 114.0224 205.44 113.9968 219.8784L113.9968 219.8784z" p-id="3506" fill="#707070"></path><path d="M848.1024 332.9792c-43.9296-0.1536-79.488-35.6864-79.5648-79.616l0 0L768.5376 166.784c0-10.7264 6.3744-20.3264 16.256-24.4736l0 0c9.9328-4.1472 21.2736-1.9456 28.928 5.6064l0 0 141.4912 139.5968-18.6624 18.8928 0-26.5216 0 26.5216 18.6624-18.8928c7.6288 7.552 9.984 19.0464 5.8624 28.9536l0 0c-4.0448 9.9328-13.7728 16.512-24.5504 16.512l0 0L848.1024 332.9792 848.1024 332.9792zM821.6064 253.3376c0 14.4128 12.0832 26.496 26.496 26.5472l0 0 23.7824 0-50.2784-49.6128L821.6064 253.3376 821.6064 253.3376z" p-id="3507" fill="#707070"></path><path d="M307.5584 476.7744c0.0256-130.5344 105.8048-236.288 236.288-236.288l0 0c130.5088 0 236.2624 105.7536 236.2624 236.288l0 0c-0.0256 130.5088-105.7792 236.2624-236.2624 236.2624l0 0C413.3376 713.0368 307.584 607.2832 307.5584 476.7744L307.5584 476.7744zM375.808 476.7744c0.1792 92.7744 75.264 167.8592 168.0384 168.0128l0 0c92.8-0.1792 167.9104-75.2384 168.0384-168.0128l0 0c-0.1536-92.8-75.2384-167.9104-168.0384-168.064l0 0C451.072 308.864 375.9872 383.9744 375.808 476.7744L375.808 476.7744 375.808 476.7744z" p-id="3508" fill="#707070"></path><path d="M879.8208 873.8816l-223.5136-221.2608c-13.3888-13.2608-13.5168-34.8416-0.256-48.2304l0 0c13.2352-13.3888 34.8672-13.5168 48.2304-0.2816l0 0 223.5392 221.2352c13.3888 13.2864 13.4912 34.8672 0.256 48.2816l0 0c-6.656 6.7584-15.4368 10.112-24.2432 10.112l0 0C895.1808 883.7376 886.5024 880.4608 879.8208 873.8816L879.8208 873.8816z" p-id="3509" fill="#707070"></path><path d="M180.1216 398.0288c-10.4704 0-18.944-8.4736-18.944-18.944l0 0c0-10.4704 8.4736-18.9696 18.944-18.9696l0 0 392.5248 0c10.4704 0 18.9696 8.4992 18.9696 18.9696l0 0c0 10.4704-8.4992 18.944-18.9696 18.944l0 0L180.1216 398.0288 180.1216 398.0288z" p-id="3510" fill="#707070"></path><path d="M180.1216 496.5888c-10.4704 0-18.944-8.4992-18.944-18.9696l0 0c0-10.4704 8.4736-18.9696 18.944-18.9696l0 0 392.5248 0c10.4704 0 18.9696 8.4992 18.9696 18.9696l0 0c0 10.4704-8.4992 18.9696-18.9696 18.9696l0 0L180.1216 496.5888 180.1216 496.5888z" p-id="3511" fill="#707070"></path><path d="M180.1216 595.1488c-10.4704 0-18.944-8.5248-18.944-18.9696l0 0c0-10.4704 8.4736-18.944 18.944-18.944l0 0 392.5248 0c10.4704 0 18.9696 8.4736 18.9696 18.944l0 0c0 10.4448-8.4992 18.9696-18.9696 18.9696l0 0L180.1216 595.1488 180.1216 595.1488z" p-id="3512" fill="#707070"></path></svg>