<?xml version="1.0" standalone="no"?><!DOCTYPE svg PUBLIC "-//W3C//DTD SVG 1.1//EN" "http://www.w3.org/Graphics/SVG/1.1/DTD/svg11.dtd"><svg t="1625643506828" class="icon" viewBox="0 0 1024 1024" version="1.1" xmlns="http://www.w3.org/2000/svg" p-id="4069" xmlns:xlink="http://www.w3.org/1999/xlink" width="200" height="200"><defs><style type="text/css"></style></defs><path d="M448.6144 182.80448V99.71712s2.08896-18.78016-12.55424-18.78016h-25.78432c-6.84032 0-13.45536 2.90816-18.6368 8.21248l-24.3712 24.94464c-5.20192 5.3248-8.192 13.06624-8.192 21.1968v47.5136h89.53856z" p-id="4070"></path><path d="M453.07904 187.24864h-98.44736V135.2704c0-9.29792 3.44064-18.14528 9.46176-24.30976L388.46464 86.016c6.02112-6.16448 13.76256-9.54368 21.83168-9.54368h25.78432c4.93568 0 9.1136 1.7408 12.0832 5.05856 5.71392 6.38976 5.12 16.34304 4.93568 18.41152v87.30624z m-89.53856-8.9088h80.60928l0.02048-79.09376c0.22528-2.17088 0.18432-8.56064-2.70336-11.75552-0.79872-0.88064-2.23232-2.06848-5.4272-2.06848h-25.78432c-5.632 0-11.12064 2.43712-15.44192 6.8608l-24.3712 24.94464c-4.4032 4.5056-6.92224 11.10016-6.92224 18.08384v43.02848zM580.64896 181.61664V98.54976s-2.08896-18.78016 12.55424-18.78016h25.78432c6.84032 0 13.45536 2.90816 18.6368 8.21248l24.3712 24.94464c5.20192 5.3248 8.192 13.06624 8.192 21.1968v47.5136h-89.53856z" p-id="4071"></path><path d="M674.63168 186.08128h-98.44736V98.77504c-0.18432-2.06848-0.77824-12.02176 4.93568-18.41152 2.9696-3.31776 7.14752-5.05856 12.0832-5.05856h25.78432c8.04864 0 15.81056 3.39968 21.8112 9.54368l24.3712 24.94464c6.02112 6.16448 9.46176 15.01184 9.46176 24.30976v51.97824z m-89.51808-8.9088h80.60928V134.10304c0-6.98368-2.51904-13.57824-6.92224-18.08384l-24.3712-24.94464c-4.32128-4.42368-9.80992-6.8608-15.44192-6.8608h-25.78432c-3.19488 0-4.62848 1.18784-5.4272 2.08896-2.88768 3.23584-2.90816 9.728-2.68288 11.75552l0.02048 0.49152v78.62272zM447.54944 193.18784h131.82976v57.73312h-131.82976z" p-id="4072"></path><path d="M194.78528 191.85664H448.7168v60.39552H194.78528zM576.2048 190.52544h253.93152v60.39552H576.2048zM236.09344 256.83968H448.7168v11.42784H236.09344zM577.20832 256.83968h212.62336v11.42784H577.20832zM212.6848 286.84288c-6.94272 0-12.57472 5.632-12.57472 12.57472v271.62624h251.96544V286.84288H212.6848z m-8.11008 44.2368h242.21696v28.89728H204.57472v-28.89728z m0 62.2592h242.21696v28.89728H204.57472v-28.89728z m242.21696 91.17696H204.57472v-28.89728h242.21696v28.89728zM816.57856 286.84288H577.20832v284.20096h251.96544V299.4176a12.607488 12.607488 0 0 0-12.5952-12.57472z m10.30144 197.67296H584.66304v-28.89728h242.21696v28.89728z m0-62.2592H584.66304v-28.89728h242.21696v28.89728z m0-62.27968H584.66304v-28.89728h242.21696v28.89728z" p-id="4073"></path><path d="M986.9312 557.3632H611.49184v142.17216h-30.74048V549.0688h2.1504v-1.92512c-44.4416 5.95968-95.49824-1.2288-136.11008-2.53952v150.20032h-30.74048v-137.44128H40.09984c-13.86496 0-25.14944 11.28448-25.14944 25.14944v261.7344c0 13.86496 11.28448 25.14944 25.14944 25.14944H986.9312c13.86496 0 25.14944-11.28448 25.14944-25.14944v-261.7344c0-13.86496-11.28448-25.14944-25.14944-25.14944z m-628.96128 154.13248h311.0912v28.89728h-311.0912v-28.89728z m-185.61024 37.60128H60.08832v-158.22848h112.27136v158.22848z m149.46304 3.33824h-112.27136v-158.22848h112.27136v158.22848z m347.2384 98.01728h-311.0912v-28.89728h311.0912v28.89728z m1.16736-55.02976h-311.0912v-28.89728h311.0912v28.89728z m149.01248-44.68736H706.9696v-158.22848h112.27136v158.22848z m148.25472 1.69984h-112.27136v-158.22848h112.27136v158.22848z" p-id="4074"></path><path d="M526.99136 506.90048h-7.39328v4.77184h10.3424v-2.2528c0-1.67936-0.98304-2.51904-2.94912-2.51904zM506.2656 319.87712c-0.49152 0.24576-0.75776 0.55296-0.75776 0.90112 0 0.32768 0.24576 0.59392 0.75776 0.83968 0.49152 0.22528 1.10592 0.34816 1.82272 0.34816 1.29024-0.2048 2.37568-0.6144 3.2768-1.2288-0.90112-0.67584-1.98656-1.08544-3.2768-1.2288-0.7168 0-1.3312 0.12288-1.82272 0.36864zM529.7152 489.65632c0-1.4336-0.9216-2.1504-2.78528-2.1504h-7.33184v3.97312h10.11712v-1.82272z" p-id="4075"></path><path d="M463.89248 280.86272v274.18624h101.60128V280.86272h-101.60128z m24.73984 65.37216v-39.0144c0.1024-4.95616 2.78528-7.45472 8.02816-7.45472h33.15712c5.28384 0 7.9872 2.47808 8.0896 7.45472v37.19168l-0.1024 5.09952H488.61184v-3.2768z m14.848 171.37664h-8.25344c-3.42016-0.04096-5.14048-2.08896-5.14048-6.16448v-28.28288h8.35584v26.58304c0 1.04448 0.57344 1.55648 1.72032 1.55648h3.31776v6.30784z m5.24288-24.2688h-7.45472v-11.03872c0-1.49504-0.75776-2.2528-2.2528-2.2528h-7.18848c-2.58048-0.32768-3.85024-1.80224-3.85024-4.44416v-8.15104l0.16384-0.16384h7.39328v5.03808h7.59808c3.93216 0 5.79584 2.1504 5.57056 6.43072v14.58176z m29.36832 24.49408h-26.624v-36.49536h20.29568c4.07552 0 6.10304 1.88416 6.10304 5.67296l-0.06144 10.5472h-18.20672v3.15392h12.36992c4.11648 0 6.16448 1.90464 6.16448 5.7344l-0.04096 11.38688z m0.47104-38.78912h-8.78592v-1.3312c0-0.90112-0.67584-1.3312-2.02752-1.3312h-8.41728v2.68288h-8.78592v-4.17792c0-3.11296 1.86368-4.66944 5.57056-4.66944h3.91168v-2.94912h9.27744v2.94912h3.80928c3.64544 0 5.46816 1.59744 5.46816 4.77184v4.05504z m-5.40672-83.31264c0.47104 0.43008 0.7168 1.20832 0.75776 2.3552l0.06144 7.65952c2.78528 0 4.17792 2.02752 4.17792 6.10304v13.06624c-0.04096 3.39968-1.7408 5.09952-5.14048 5.09952h-10.01472l-0.06144-7.02464h5.14048c0.90112 0 1.3312-0.43008 1.3312-1.29024v-4.97664c0-2.64192-1.57696-3.97312-4.7104-3.97312h-9.216v19.98848h-8.72448v-15.70816c0-2.8672-1.59744-4.28032-4.8128-4.28032h-13.9264v-7.02464h18.75968v-5.46816c0-2.21184-1.49504-3.31776-4.5056-3.31776h-12.5952v-7.02464h17.1008v-7.76192h8.72448v7.76192h8.192c1.536-0.06144 2.72384 0.2048 3.54304 0.79872l-4.44416-8.35584h6.59456c1.59744 0 2.80576 0.69632 3.584 2.08896l5.632 11.24352h-5.44768z" p-id="4076"></path><path d="M524.57472 306.2784h-27.38176v36.7616h32.09216v-31.88736c0-3.25632-1.55648-4.87424-4.7104-4.87424z m-25.43616 22.24128c3.03104-0.75776 5.5296-1.1264 7.49568-1.1264s3.72736 0.14336 5.28384 0.45056 3.29728 0.98304 5.24288 2.00704c1.9456 1.04448 5.28384 1.04448 9.99424 0.06144v5.14048c-2.39616 0.49152-4.64896 0.69632-6.77888 0.59392-2.12992-0.1024-4.05504-0.55296-5.75488-1.3312-1.72032-0.77824-3.62496-1.3312-5.71392-1.6384-2.08896-0.3072-5.34528 0.04096-9.76896 1.04448v-5.20192z m28.28288 13.27104c-2.4576 0.53248-4.75136 0.73728-6.84032 0.59392s-3.9936-0.6144-5.71392-1.41312c-1.72032-0.79872-3.62496-1.35168-5.71392-1.6384s-5.34528 0.06144-9.76896 1.024v-5.09952c3.03104-0.77824 5.5296-1.18784 7.49568-1.18784s3.72736 0.14336 5.28384 0.43008c1.55648 0.28672 3.29728 0.96256 5.24288 2.00704s5.28384 1.06496 9.99424 0.02048v5.26336z m-9.48224-15.21664l-1.92512-1.65888-2.99008 1.29024c-3.03104 0.49152-5.5296 0.59392-7.4752 0.26624-1.9456-0.32768-3.62496-1.06496-5.05856-2.2528-1.88416-2.74432-1.6384-5.18144 0.75776-7.29088 3.31776-2.2528 7.33184-2.62144 12.06272-1.1264l2.31424 1.45408 2.84672-3.6864h-11.50976c-1.86368 0.90112-4.17792 1.59744-6.9632 2.08896v-5.9392c1.92512-0.38912 3.54304-1.08544 4.87424-2.08896h8.45824l-0.86016 1.29024h10.3424c3.31776 0.24576 4.7104 1.98656 4.17792 5.20192l-5.50912 7.12704 6.16448 5.36576h-9.70752zM521.35936 396.96384h-5.89824v8.78592h9.70752v-5.46816c0-2.21184-1.26976-3.31776-3.80928-3.31776z" p-id="4077"></path></svg>