<svg xmlns="http://www.w3.org/2000/svg" viewBox="0 0 2340 1560"><defs><style>.cls-1{fill:#fff;}.cls-1,.cls-2,.cls-3,.cls-4{stroke:#1a1a1a;stroke-linecap:round;stroke-linejoin:round;}.cls-1,.cls-4{stroke-width:2px;}.cls-2{fill:none;stroke-width:3px;}.cls-3{fill:#3f3325;}.cls-4{fill:#fbb040;}</style></defs><title>Vectors</title><g id="_2" data-name="2"><path class="cls-1" d="M450.49091,1227.5c3.60217-9.07922,36.79638-88.82483,122.00909-111.5,70.93945-18.87708,148.932,9.51532,196,72,15.55054-10.48358,61.78348-38.72247,127-37,64.55835,1.70508,108.91423,31.74506,124,43,4.6378-11.67444,38.08327-91.97137,125-120,74.51708-24.03,158.79227-.11371,215,61,39.283-22.91089,142.58853-76.033,281-66,180.74268,13.1015,244.98621,131.59113,272,160C1409.16364,1230.83331,953.82727,1225.66669,450.49091,1227.5Z"/><line class="cls-2" x1="363" y1="1229" x2="1937" y2="1229"/><polygon class="cls-1" points="593.683 1280.801 614.683 1280.801 663.683 1013.801 642.683 1013.801 593.683 1280.801"/><rect class="cls-1" x="603.68291" y="978.80101" width="268" height="50" rx="13.94554" transform="translate(1475.36582 2007.60203) rotate(-180)"/><polygon class="cls-1" points="887.683 1280.801 866.683 1280.801 817.683 1013.801 838.683 1013.801 887.683 1280.801"/><path class="cls-1" d="M603.49118,970.301H707.18291l-90-264H526.17113a18.59727,18.59727,0,0,0-17.6025,24.59811l77.32005,226.80549A18.59725,18.59725,0,0,0,603.49118,970.301Z"/><path class="cls-1" d="M644.75158,970.301H724.639a17.56373,17.56373,0,0,0,16.62425-23.23109L663.23849,718.19739A17.56374,17.56374,0,0,0,646.61424,706.301H566.72685a17.56374,17.56374,0,0,0-16.62425,23.2311l78.02473,228.87253A17.56373,17.56373,0,0,0,644.75158,970.301Z"/><path class="cls-3" d="M953.17565,1230.03759c11.28424,4.02118,39.23413,14.53021,58.00726,26.26342,25.32007,13.77,13,25,13,25s-77,0-117-1c-26.36181-2.31811-2-50-2-50l1.27271-2.72717C919.73894,1240.16588,941.02355,1243.609,953.17565,1230.03759Z"/><path class="cls-1" d="M960.18291,1196.301l-12,32s1.851.617,4.99274,1.73658c-12.1521,13.57141-33.43671,10.12829-46.72-2.46375l19.72729-42.27283Z"/><path class="cls-3" d="M795.18291,1230.301l1.178-2.52423c14.35309,10.19776,34.43048,12.68964,48.63318,2.91364,12.24225,4.42407,38.35467,14.46423,56.18884,25.61059,25.32007,13.77,13,25,13,25s-77,0-117-1C770.82116,1277.9829,795.18291,1230.301,795.18291,1230.301Z"/><path class="cls-1" d="M796.36089,1227.77678l19.822-42.47577,34,11-12,32s2.57862.85987,6.81116,2.38941C830.79137,1240.46642,810.714,1237.97454,796.36089,1227.77678Z"/><path class="cls-1" d="M968.68291,1216.801s102-280,29.5-302.5c-54.9971-17.06806-174-10-174-10l-.5,87.5s109-15,113,16c10.88058,84.32446-25,187-25,187Z"/><path class="cls-1" d="M863.68291,1206.801l-65-9s48.5-190.5,12.5-203.5-86-11-86-11-47,8-51-74c74-12,190.26137-8.49242,215,8C934.18291,947.301,925.68291,1087.801,863.68291,1206.801Z"/><path class="cls-1" d="M922.35586,824.65328c1.1084-1.10841,58.74548-52.09505,82.022,7.75883,7.75884,24.38492,2.21681,27.71014,0,26.60173s-8.86724-22.1681-15.51767-23.27651c-7.75884,11.084-7.75884,15.51767-13.30087,15.51767s-17.73448-3.32521-26.60172-7.75883c0,0-12.19246,8.86724-16.62608,8.86724C926.78948,841.27936,922.35586,824.65328,922.35586,824.65328Z"/><path class="cls-4" d="M852.41915,666.24741s39.76376,49.0536,51.76376,103.0536,24.87623,47.5,24.87623,47.5l14.12377,33.5s-24.901,52.76437-61.45049,51.88219S839.65539,684.1938,852.41915,666.24741Z"/><path class="cls-4" d="M860.18291,676.301c-21-32-52-33-52-33s-73-12-101,46-28,209-28,209l192.56931,3.88219s5.54489-76.14075,3.03787-141.31755"/><path class="cls-4" d="M744.18291,752.301s-24,84-18,92c11,13,73-18,73-18l18,32s-67,44-97,53-87,7-72-60c16.69-67.84,33.38-124.38,59.59-161.65"/><path class="cls-1" d="M827.55914,794.301c0,1,42,86,42,86l6.43109,6.4311a2.48257,2.48257,0,0,0,4.20024-2.18688l-1.63133-9.24422-46-83Z"/><path class="cls-1" d="M793.55914,834.301s40-32,60-25,23.98285,32.87689,20.99142,37.43845-27.99142,8.56155-33.99142,6.56155-34,6-34,6Z"/><polygon class="cls-1" points="1164.183 1281.301 1177.183 1281.301 1229.183 884.301 1216.183 884.301 1164.183 1281.301"/><polygon class="cls-1" points="860.183 1281.301 847.183 1281.301 795.183 884.301 808.183 884.301 860.183 1281.301"/><polygon class="cls-1" points="1043.183 1281.301 1056.183 1281.301 1108.183 884.301 1095.183 884.301 1043.183 1281.301"/><polygon class="cls-1" points="739.183 1281.301 726.183 1281.301 674.183 884.301 687.183 884.301 739.183 1281.301"/><rect class="cls-1" x="817.18291" y="868.30101" width="454" height="21" transform="translate(2088.36582 1757.60203) rotate(-180)"/><rect class="cls-1" x="654.21957" y="868.30103" width="166.46334" height="21" transform="translate(1474.90248 1757.60206) rotate(-180)"/><path class="cls-1" d="M859.18291,627.301s-42-3-38,32-58,14-56-3c14-8,42-33,20-55s-38-58-13-84,86-16,97,26S885.18291,622.301,859.18291,627.301Z"/><path class="cls-3" d="M874.18291,532.301s-35-3-37,18-11,17-18,20,2,19,2,19l-6,1s-19-26-29-11,13,28,13,28l-9,6s-16-28-27-33-24-49,8-72S857.18291,491.301,874.18291,532.301Z"/><path class="cls-1" d="M1797.23625,1063.63887s13.36452-58.8039,73.95035-92.66069,132.75426-5.34581,132.75426-5.34581Z"/><path class="cls-1" d="M1703.21805,1073.3486s-1.75029-49.88329-50.75844-104.14231S1530.81439,919.323,1530.81439,919.323Z"/><path class="cls-1" d="M1626.55914,754.301s-22,82,10,163,85,143,85,143-6-104-23-170S1626.55914,754.301,1626.55914,754.301Z"/><path class="cls-1" d="M1747.40218,1078.30194s-17.42207-103.65911,44.9306-204.51663c35.76109-55.09809,76.37656-81.79043,76.37656-81.79043s-18.60865,92.99682-41.53242,136.88852S1747.40218,1078.30194,1747.40218,1078.30194Z"/><path class="cls-1" d="M1743.69934,1057.39324s-67.15988-132.53562,13.0325-241.976C1738.69085,893.037,1759.75429,1014.31116,1743.69934,1057.39324Z"/><path class="cls-1" d="M1779.91386,1059.8938s8.0579-177.27389,154.89083-202.34293C1891.8292,883.51523,1817.51741,948.87379,1779.91386,1059.8938Z"/><polygon class="cls-1" points="1795.837 1281.137 1719.281 1281.137 1657.854 1068.588 1857.264 1068.588 1795.837 1281.137"/><rect class="cls-1" x="1637.05908" y="1046.80101" width="241" height="26"/><rect class="cls-1" x="846.60178" y="197.29888" width="507.91471" height="280.00426" rx="26.99251"/><rect class="cls-1" x="903.03675" y="381.79782" width="24.96162" height="36.89979" rx="5.76579"/><rect class="cls-1" x="980.09219" y="366.60379" width="24.96162" height="52.09382" rx="6.85078"/><rect class="cls-1" x="1057.14763" y="337.30101" width="24.96162" height="81.39659" rx="8.56348"/><rect class="cls-3" x="1134.20306" y="337.30101" width="24.96162" height="81.39659" rx="8.56348"/><rect class="cls-1" x="1211.2585" y="290.63364" width="24.96162" height="128.06397" rx="10.74139"/><rect class="cls-1" x="1288.31394" y="268.92788" width="24.96162" height="149.76972" rx="11.61607"/><polygon class="cls-1" points="901.099 369.081 901.099 369.081 901.099 369.081 901.099 369.081"/><polygon class="cls-1" points="1308.934 234.199 1271.564 228.029 1277.568 243.979 1211.8 268.738 1135.579 312.753 1057.784 303.029 898.463 361.956 901.099 369.081 1058.681 310.797 1137.169 320.608 1215.059 275.629 1280.245 251.088 1284.91 263.481 1308.934 234.199"/><rect class="cls-1" x="903.03675" y="436.06221" width="410.23881" height="5.42644"/><rect class="cls-1" x="903.03675" y="237.45453" width="53.1791" height="5.42644"/><rect class="cls-1" x="903.03675" y="253.73385" width="53.1791" height="5.42644"/><rect class="cls-1" x="903.03675" y="270.01317" width="53.1791" height="5.42644"/><rect class="cls-1" x="903.03675" y="286.29249" width="53.1791" height="5.42644"/><polygon class="cls-1" points="383.958 549.594 359.425 549.594 374.612 459.637 399.146 459.637 383.958 549.594"/><polygon class="cls-1" points="414.334 549.594 389.8 549.594 404.987 459.637 429.521 459.637 414.334 549.594"/><polygon class="cls-1" points="444.709 549.594 420.175 549.594 435.362 459.637 459.896 459.637 444.709 549.594"/><polygon class="cls-1" points="475.084 549.594 450.55 549.594 465.738 459.637 490.271 459.637 475.084 549.594"/><polygon class="cls-1" points="505.459 549.594 480.925 549.594 496.113 459.637 520.646 459.637 505.459 549.594"/><circle class="cls-1" cx="589.57469" cy="461.97357" r="38.55306"/><path class="cls-1" d="M614.09155,516.51667a60.82329,60.82329,0,0,0,30.78372-80.19151l-10.67192,4.75367a49.06175,49.06175,0,0,1-74.05857,59.3474l-5.95289,10.07665a61.24274,61.24274,0,0,0,30.7097,11.08535v19.828H563.87265v8.17792h51.40407v-8.17792H594.24779V521.57154A60.38671,60.38671,0,0,0,614.09155,516.51667Z"/><path class="cls-1" d="M442.03088,366.75921h-33.1975l-25.45913-25.45913v-23.8513l25.45913-25.45913h33.1975L467.49,317.44878v23.8513Z"/><rect class="cls-1" x="379.86943" y="366.75921" width="91.1254" height="9.3462"/><path class="cls-1" d="M584.31745,362.07442v-12.1662c6.81812-2.45492,18.69239-6.84978,18.69239-7.68277v-29.9436a32.03777,32.03777,0,0,0,9.84712-21.01524H548.7683a32.03777,32.03777,0,0,0,9.84712,21.01524v29.9436c0,.833,11.87427,5.22785,18.69239,7.68277v12.1662c-12.01717.91186-21.40686,6.41809-22.23587,13.24662h51.48145C605.72438,368.49251,596.33469,362.98613,584.31745,362.07442Zm14.0193-25.69035-14.0193,7.00965V321.00084a31.91357,31.91357,0,0,0,14.0193-5.00852Zm-35.04824,0V315.99232a31.91388,31.91388,0,0,0,14.0193,5.00852v22.39288Z"/><circle class="cls-1" cx="514.22099" cy="358.58129" r="17.52412"/><rect class="cls-1" x="337.22742" y="375.52127" width="304.91962" height="21.02894"/><rect class="cls-1" x="336.05914" y="549.59415" width="316.60236" height="29.20686"/><rect class="cls-1" x="1844.05922" y="557.00621" width="113.58001" height="137.91858" rx="22.08216" transform="translate(3801.69845 1251.931) rotate(-180)"/><rect class="cls-1" x="1844.05922" y="486.73727" width="113.58001" height="49.29886" rx="13.20227" transform="translate(3801.69845 1022.77341) rotate(-180)"/><circle class="cls-4" cx="450.05914" cy="1132.80101" r="27"/><polygon class="cls-1" points="1548.559 1197.801 1542.559 1258.801 1584.559 1256.801 1576.559 1192.801 1548.559 1197.801"/><path class="cls-1" d="M1539.55914,1242.801s22,11,33,8c20-7,20-8,20-8l41.5,38s-49.5,4-73.5-15l-10,16h-11S1532.55914,1264.801,1539.55914,1242.801Z"/><polygon class="cls-1" points="1481.559 1197.801 1487.559 1258.801 1445.559 1256.801 1453.559 1192.801 1481.559 1197.801"/><path class="cls-1" d="M1490.55914,1242.801s-22,11-33,8c-20-7-20-8-20-8l-38.5,38s46.5,4,70.5-15l10,16h11S1497.55914,1264.801,1490.55914,1242.801Z"/><path class="cls-4" d="M1411.55914,1206.801s-5-477,60-542c76-5,90,0,90,0s49,116,47,280,26,254,26,254Q1534.48019,1218.32941,1411.55914,1206.801Z"/><path class="cls-1" d="M1307.48324,569.58467s-19.77951-36.2267-36.929-40.86706-23.55422-11.41517-30.68776-12.946-22.42377,20.38937,7.27361,35.763,43.36648,25.0875,43.36648,25.0875Z"/><path class="cls-3" d="M1616.72112,558.39925s11.63184-57.78149-49.26176-71.234c-24.31053-4.58237-7.51282-42.63282-7.51282-42.63282s-75.22278-1.59185-75.98651,2.45991,7.57,60.66049-5.05578,67.41245-18.20934,65.17991,45.09272,68.47369S1611.90419,578.71666,1616.72112,558.39925Z"/><path class="cls-1" d="M1562.05914,579.801s-16.5,46,3.5,87c-50,41-100,0-100,0s8-9,8-31-21-48-21-48-53.346,113.504-171-14.5c7.20449-11.53669,20-20,20-20s70,61,96.22,35.08154c42.984-42.48971,45.78-54.58154,77.78-56.58154s65.22178-10.86184,95.5,9"/><polygon class="cls-1" points="1496.559 686.301 1586.559 662.301 1609.559 724.301 1519.559 756.301 1496.559 686.301"/><path class="cls-1" d="M1586.46536,723.266s-7.53267,5.33164-15.40622.53505c-5.31807-3.23977-21,13-25,23-2,2-7.65539,1.62192-7,4,.51649,1.87408,11,10,17,10C1573.08853,760.801,1591.32884,752.39235,1586.46536,723.266Z"/><path class="cls-1" d="M1571.05914,540.801c30.5,18,35,70,21,180-3,45-36,10-36,10s32-45,6-151"/><path class="cls-1" d="M1519.13292,465.96254s-8.23244,55.32745,23.92622,64.83847c-22.0038,16.07866-68.4351,2.08353-68.4351,2.08353s23.71661-11.60761,19.14-55.41462C1508.73823,476.59035,1519.13292,465.96254,1519.13292,465.96254Z"/><path class="cls-1" d="M1476.15115,433.42691c1.17563-14.09318,68.47081-11.034,69.11582-.05288a121.11153,121.11153,0,0,1-1.80842,12.85472c4.75747-1.34769,10.27312-1.15,9.02949,7.75732-1.53368,10.98481-10.165,17.63947-16.2063,15.97327-5.941,13.20018-15.68189,24.72-31.53807,23.89495C1468.57106,491.97213,1474.97552,447.5201,1476.15115,433.42691Z"/><path class="cls-3" d="M1559.94654,444.53245s-54.26035,14.20615-64.2989-20.26453c-7.98768,17.49849-20.52016,22.047-20.52016,22.047s-3.96773-12.5948-11.13159-15.17917c3.11355-15.20874,12.30247-45.33164,36.17692-49.206C1538.87115,375.64974,1575.21823,397.55612,1559.94654,444.53245Z"/><polygon class="cls-1" points="1151.559 860.301 1004.559 860.301 1042.559 739.301 1189.559 739.301 1151.559 860.301"/><polygon class="cls-1" points="1158.559 860.301 1011.559 860.301 1049.559 739.301 1196.559 739.301 1158.559 860.301"/><rect class="cls-1" x="1011.55914" y="860.30101" width="147" height="8"/><rect class="cls-1" x="901.55914" y="860.30101" width="110" height="8"/><path class="cls-1" d="M1102.40722,796.74986l9.09659-7.49488a5.95016,5.95016,0,0,1,9.24682,2.23467l3.65488,8.46952a5.95016,5.95016,0,0,1-5.91665,8.2904l-12.75148-.97463A5.95016,5.95016,0,0,1,1102.40722,796.74986Z"/></g></svg>